<?xml version="1.0" encoding="UTF-8"?>
<!DOCTYPE svg PUBLIC "-//W3C//DTD SVG 1.1//EN" "http://www.w3.org/Graphics/SVG/1.1/DTD/svg11.dtd">
<!-- Creator: CorelDRAW 2020 (64-Bit) -->
<svg xmlns="http://www.w3.org/2000/svg" xml:space="preserve" width="336px" height="336px" version="1.1" style="shape-rendering:geometricPrecision; text-rendering:geometricPrecision; image-rendering:optimizeQuality; fill-rule:evenodd; clip-rule:evenodd"
viewBox="0 0 437 437"
 xmlns:xlink="http://www.w3.org/1999/xlink"
 xmlns:xodm="http://www.corel.com/coreldraw/odm/2003">
 <defs>
  <style type="text/css">
   <![CDATA[
    .fil0 {fill:#E8F1F7}
    .fil1 {fill:#E8F1F7;fill-rule:nonzero}
   ]]>
  </style>
 </defs>
 <g id="Слой_x0020_1">
  <metadata id="CorelCorpID_0Corel-Layer"/>
  <g id="_2761545226064">
   <path class="fil0" d="M65 0l307 0c36,0 65,29 65,65l0 307c0,36 -29,65 -65,65l-307 0c-36,0 -65,-29 -65,-65l0 -307c0,-36 29,-65 65,-65zm1 37l305 0c16,0 29,13 29,29l0 305c0,16 -13,29 -29,29l-305 0c-16,0 -29,-13 -29,-29l0 -305c0,-16 13,-29 29,-29z"/>
   <g>
    <path class="fil1" d="M106 219c-12,0 -22,9 -22,21l0 87c0,12 10,22 22,22 12,0 22,-10 22,-22l0 -87c0,-12 -10,-21 -22,-21l0 0z"/>
    <path class="fil1" d="M214 88c-12,0 -21,10 -21,22l0 217c0,12 9,22 21,22 12,0 22,-10 22,-22l0 -217c0,-12 -10,-22 -22,-22z"/>
    <path class="fil1" d="M331 162c-12,0 -21,10 -21,22l0 143c0,12 9,22 21,22 12,0 22,-10 22,-22l0 -143c0,-12 -10,-22 -22,-22l0 0z"/>
   </g>
  </g>
 </g>
</svg>
