<?xml version="1.0" encoding="UTF-8"?>
<!DOCTYPE svg PUBLIC "-//W3C//DTD SVG 1.1//EN" "http://www.w3.org/Graphics/SVG/1.1/DTD/svg11.dtd">
<!-- Creator: CorelDRAW 2020 (64-Bit) -->
<svg xmlns="http://www.w3.org/2000/svg" xml:space="preserve" width="324px" height="340px" version="1.1" style="shape-rendering:geometricPrecision; text-rendering:geometricPrecision; image-rendering:optimizeQuality; fill-rule:evenodd; clip-rule:evenodd"
viewBox="0 0 406 427"
 xmlns:xlink="http://www.w3.org/1999/xlink"
 xmlns:xodm="http://www.corel.com/coreldraw/odm/2003">
 <defs>
  <style type="text/css">
   <![CDATA[
    .fil0 {fill:#FEFEFE}
   ]]>
  </style>
 </defs>
 <g id="Слой_x0020_1">
  <metadata id="CorelCorpID_0Corel-Layer"/>
  <path class="fil0" d="M0 140c0,9 7,15 15,15l27 0 0 161 -4 2c-23,8 -38,29 -38,53l0 42c0,8 7,14 15,14l377 0c8,0 14,-6 14,-14l0 -42c0,-24 -15,-45 -37,-53l-5 -2 0 -161 28 0c8,0 14,-6 14,-15l0 -62c0,-7 -4,-12 -10,-14l-188 -63c-2,-1 -3,-1 -5,-1 -1,0 -3,0 -4,1l-189 63c-6,2 -10,7 -10,14l0 62zm377 258l-348 0 0 -27c0,-15 13,-27 28,-27l293 0c15,0 27,12 27,27l0 27zm-306 -84l0 -159 55 0 0 159 -55 0zm84 0l0 -159 96 0 0 159 -96 0zm126 0l0 -159 54 0 0 159 -54 0zm-252 -188l0 -38 174 -58 174 58 0 38 -348 0z"/>
 </g>
</svg>
