<?xml version="1.0" encoding="UTF-8"?>
<!DOCTYPE svg PUBLIC "-//W3C//DTD SVG 1.1//EN" "http://www.w3.org/Graphics/SVG/1.1/DTD/svg11.dtd">
<!-- Creator: CorelDRAW 2020 (64-Bit) -->
<svg xmlns="http://www.w3.org/2000/svg" xml:space="preserve" width="253px" height="278px" version="1.1" style="shape-rendering:geometricPrecision; text-rendering:geometricPrecision; image-rendering:optimizeQuality; fill-rule:evenodd; clip-rule:evenodd"
viewBox="0 0 92 101"
 xmlns:xlink="http://www.w3.org/1999/xlink"
 xmlns:xodm="http://www.corel.com/coreldraw/odm/2003">
 <defs>
  <style type="text/css">
   <![CDATA[
    .fil0 {fill:#FEFEFE;fill-rule:nonzero}
   ]]>
  </style>
 </defs>
 <g id="Слой_x0020_1">
  <metadata id="CorelCorpID_0Corel-Layer"/>
  <path class="fil0" d="M41 23c0,-3 2,-5 5,-5 3,0 5,2 5,5l0 18c0,3 -2,6 -5,6 -3,0 -5,-3 -5,-6l0 -18zm-6 -10c-2,1 -5,0 -7,-3 -1,-2 0,-5 3,-6 2,-2 5,-2 7,-3 3,-1 5,-1 8,-1 10,0 19,4 25,11 7,7 11,16 11,26l0 3c0,2 0,3 0,4 1,2 1,3 2,4l5 8c1,2 2,3 2,5 1,4 1,8 0,11 -1,4 -4,7 -7,9 -1,1 -3,1 -5,2 -2,1 -5,1 -8,2 -1,2 -2,3 -3,5 -1,2 -2,3 -4,5 -2,1 -6,1 -7,-1 -2,-2 -2,-5 0,-7 -4,0 -7,0 -11,0 -4,0 -7,0 -11,0l1 1c3,2 6,3 10,3l3 0c2,-1 5,1 5,4 1,3 -1,5 -4,6l-2 0 -2 0c-6,0 -11,-2 -15,-4 -5,-3 -8,-7 -10,-12 -3,-1 -6,-1 -8,-2 -2,-1 -4,-1 -5,-2 -3,-2 -6,-5 -7,-9 -1,-3 -1,-7 0,-11 0,-2 1,-3 2,-5l5 -8c1,-1 1,-2 2,-4 0,-1 0,-2 0,-4l0 -3c0,-3 1,-6 1,-8 1,-3 2,-5 3,-8 1,-2 4,-4 6,-2 3,1 4,4 3,6 -1,2 -2,4 -2,6 0,2 -1,4 -1,6l0 3c0,3 0,5 -1,7 0,3 -1,5 -3,7l-5 8c0,0 0,1 0,2 -1,1 -1,3 0,5 0,1 1,2 3,3 0,1 1,1 1,1 10,3 21,4 31,4 10,0 21,-1 31,-4 0,0 1,0 1,-1 2,-1 3,-2 3,-3 1,-2 1,-4 1,-5 -1,-1 -1,-2 -1,-2l-5 -8c-2,-2 -3,-4 -3,-7 -1,-2 -1,-4 -1,-7l0 -3c0,-7 -3,-14 -8,-19 -5,-5 -11,-8 -18,-8 -2,0 -4,0 -6,1 -1,0 -3,1 -5,2z"/>
 </g>
</svg>
