<?xml version="1.0" encoding="UTF-8"?>
<!DOCTYPE svg PUBLIC "-//W3C//DTD SVG 1.1//EN" "http://www.w3.org/Graphics/SVG/1.1/DTD/svg11.dtd">
<!-- Creator: CorelDRAW 2020 (64-Bit) -->
<svg xmlns="http://www.w3.org/2000/svg" xml:space="preserve" width="215px" height="237px" version="1.1" style="shape-rendering:geometricPrecision; text-rendering:geometricPrecision; image-rendering:optimizeQuality; fill-rule:evenodd; clip-rule:evenodd"
viewBox="0 0 100 110"
 xmlns:xlink="http://www.w3.org/1999/xlink"
 xmlns:xodm="http://www.corel.com/coreldraw/odm/2003">
 <defs>
  <style type="text/css">
   <![CDATA[
    .fil0 {fill:#1C3E61;fill-rule:nonzero}
   ]]>
  </style>
 </defs>
 <g id="Слой_x0020_1">
  <metadata id="CorelCorpID_0Corel-Layer"/>
  <path class="fil0" d="M8 38l84 0 0 -3c0,-6 -2,-11 -5,-14 -3,-3 -7,-5 -13,-5l0 5c0,2 -1,3 -3,3 -3,0 -4,-1 -4,-3l0 -5 -34 0 0 5c0,2 -2,3 -4,3 -2,0 -4,-1 -4,-3l0 -5c-5,0 -9,2 -12,5 -4,3 -5,8 -5,15l0 2zm84 7l-84 0 0 37c0,7 1,12 5,15 3,4 9,5 15,5l43 0c7,0 12,-1 16,-5 3,-3 5,-8 5,-15l0 -37zm-59 -37l34 0 0 -4c0,-2 1,-4 4,-4 2,0 3,2 3,4l0 4c8,1 14,3 18,7 5,5 8,12 8,20l0 47c0,9 -3,16 -8,21 -5,4 -12,7 -21,7l-43 0c-8,0 -16,-3 -20,-8 -5,-4 -8,-11 -8,-20l0 -46c0,-9 3,-16 8,-21 4,-4 10,-6 17,-7l0 -4c0,-2 2,-4 4,-4 2,0 4,2 4,4l0 4zm-6 77c-2,0 -4,-1 -4,-3 0,-3 2,-4 4,-4l0 0c2,0 4,1 4,4 0,2 -2,3 -4,3l0 0zm23 0c-2,0 -4,-1 -4,-3 0,-3 2,-4 4,-4l0 0c2,0 4,1 4,4 0,2 -2,3 -4,3l0 0zm23 0c-3,0 -4,-1 -4,-3 0,-3 1,-4 4,-4l0 0c2,0 3,1 3,4 0,2 -1,3 -3,3l0 0zm-46 -20c-2,0 -4,-1 -4,-3 0,-2 2,-4 4,-4l0 0c2,0 4,2 4,4 0,2 -2,3 -4,3l0 0zm23 0c-2,0 -4,-1 -4,-3 0,-2 2,-4 4,-4l0 0c2,0 4,2 4,4 0,2 -2,3 -4,3l0 0zm23 0c-3,0 -4,-1 -4,-3 0,-2 1,-4 4,-4l0 0c2,0 3,2 3,4 0,2 -1,3 -3,3l0 0z"/>
 </g>
</svg>
