<?xml version="1.0" encoding="UTF-8"?>
<!DOCTYPE svg PUBLIC "-//W3C//DTD SVG 1.1//EN" "http://www.w3.org/Graphics/SVG/1.1/DTD/svg11.dtd">
<!-- Creator: CorelDRAW 2020 (64-Bit) -->
<svg xmlns="http://www.w3.org/2000/svg" xml:space="preserve" width="346px" height="346px" version="1.1" style="shape-rendering:geometricPrecision; text-rendering:geometricPrecision; image-rendering:optimizeQuality; fill-rule:evenodd; clip-rule:evenodd"
viewBox="0 0 464 464"
 xmlns:xlink="http://www.w3.org/1999/xlink"
 xmlns:xodm="http://www.corel.com/coreldraw/odm/2003">
 <defs>
  <style type="text/css">
   <![CDATA[
    .fil0 {fill:#FEFEFE}
   ]]>
  </style>
 </defs>
 <g id="Слой_x0020_1">
  <metadata id="CorelCorpID_0Corel-Layer"/>
  <path class="fil0" d="M232 0c-129,0 -232,103 -232,232 0,129 103,232 232,232 129,0 232,-103 232,-232 0,-129 -103,-232 -232,-232zm0 426c-108,0 -194,-86 -194,-194 0,-108 86,-194 194,-194 108,0 194,86 194,194 0,108 -86,194 -194,194zm40 -298l0 -24c0,-11 -7,-19 -19,-19 -11,0 -19,8 -19,19l0 24 -25 0 0 -24c0,-11 -8,-19 -20,-19 -11,0 -19,8 -19,19l0 24 -23 0c-12,0 -19,7 -19,19 0,11 7,19 19,19l23 0 0 132 -23 0c-12,0 -19,8 -19,19 0,12 7,19 19,19l23 0 0 24c0,11 8,19 19,19 12,0 20,-8 20,-19l0 -24 25 0 0 24c0,11 8,19 19,19 12,0 19,-8 19,-19l0 -24 3 0c35,0 61,-26 61,-61 0,-15 -6,-31 -16,-41l-2 -2 2 -2c10,-10 16,-26 16,-41 0,-35 -26,-61 -61,-61l-3 0zm3 170l-66 0 0 -47 66 0c14,0 23,10 23,24 0,14 -9,23 -23,23zm0 -85l-66 0 0 -47 66 0c14,0 23,9 23,23 0,14 -9,24 -23,24z"/>
 </g>
</svg>
