<?xml version="1.0" encoding="UTF-8"?>
<!DOCTYPE svg PUBLIC "-//W3C//DTD SVG 1.1//EN" "http://www.w3.org/Graphics/SVG/1.1/DTD/svg11.dtd">
<!-- Creator: CorelDRAW 2020 (64-Bit) -->
<svg xmlns="http://www.w3.org/2000/svg" xml:space="preserve" width="2993px" height="1018px" version="1.1" style="shape-rendering:geometricPrecision; text-rendering:geometricPrecision; image-rendering:optimizeQuality; fill-rule:evenodd; clip-rule:evenodd"
viewBox="0 0 30143 10253"
 xmlns:xlink="http://www.w3.org/1999/xlink"
 xmlns:xodm="http://www.corel.com/coreldraw/odm/2003">
 <defs>
  <style type="text/css">
   <![CDATA[
    .fil0 {fill:url(#id0)}
   ]]>
  </style>
  <linearGradient id="id0" gradientUnits="userSpaceOnUse" x1="0" y1="5126" x2="30143" y2="5126">
   <stop offset="0" style="stop-opacity:1; stop-color:#002134"/>
   <stop offset="1" style="stop-opacity:1; stop-color:#274E89"/>
  </linearGradient>
 </defs>
 <g id="Слой_x0020_1">
  <metadata id="CorelCorpID_0Corel-Layer"/>
  <path class="fil0" d="M11689 1864l62 0c21,0 39,13 46,33l980 3010c5,15 3,30 -7,43 -9,13 -23,20 -39,20l-2022 0c-16,0 -30,-7 -40,-20 -9,-13 -11,-28 -6,-43l980 -3010c7,-20 25,-33 46,-33zm6132 8215l0 -267 320 0c23,0 44,-8 61,-25 17,-17 26,-38 26,-61 0,-24 -9,-45 -26,-62 -17,-17 -38,-25 -61,-25l-320 0 0 -266 443 1 1 0c24,0 44,-8 61,-25 17,-17 25,-38 25,-62 0,-23 -8,-44 -25,-61 -17,-17 -37,-26 -61,-26l-531 -1 -1 0c-24,0 -44,8 -60,26 -18,16 -26,36 -26,61l0 880c0,24 8,44 26,61 16,17 36,26 60,26l532 0c24,0 44,-9 61,-26 17,-17 25,-37 25,-61 0,-24 -8,-44 -25,-62 -17,-17 -37,-25 -61,-25l-444 0zm11662 -705l136 0c97,0 179,35 248,103 68,69 103,152 103,248 0,97 -35,179 -103,248 -69,68 -152,103 -249,103l-135 2 0 -704zm-85 879l221 -3c145,0 268,-52 371,-155 102,-102 153,-225 153,-370 0,-144 -51,-268 -153,-371 -103,-102 -226,-153 -371,-153l-223 0c-24,0 -44,8 -61,25 -17,17 -25,38 -25,61l0 879c0,24 8,45 25,62 18,16 38,25 61,25l2 0zm-1054 -615l0 -267 217 0c42,0 79,13 109,39 31,26 46,57 46,95 0,35 -15,66 -44,92 -29,25 -64,39 -105,41l-223 0zm544 -133c0,-85 -32,-157 -96,-217 -63,-59 -141,-89 -231,-89l-304 0c-23,0 -44,8 -61,26 -17,16 -25,36 -25,60l0 875c0,24 8,44 25,61 17,17 38,25 61,25 24,0 44,-8 61,-25 17,-17 26,-37 26,-61l0 -350 149 0 194 394c16,32 42,49 77,49 14,0 26,-3 39,-9 21,-11 35,-28 43,-50 8,-23 6,-44 -4,-65l-166 -338c63,-22 113,-59 152,-111 40,-52 60,-111 60,-175zm-1682 351l141 -340 141 340 -282 0zm-255 390c11,4 22,7 33,7 39,0 65,-18 80,-54l70 -170 426 0 70 170c15,36 42,54 80,54 11,0 22,-3 33,-7 22,-9 38,-25 47,-47 9,-22 9,-44 0,-66l-93 -224c0,0 0,0 0,-1l-270 -651 0 0c-1,-3 -2,-5 -4,-8 0,0 -1,-2 -2,-3 -2,-2 -2,-3 -2,-4 0,-1 -1,-2 -3,-4l-2 -3c0,0 -1,-1 -3,-3 -2,-2 -3,-3 -3,-3 -1,-1 -2,-2 -3,-3 -2,-2 -3,-2 -3,-2 -1,-1 -2,-2 -4,-3 -2,-2 -3,-3 -3,-3 0,0 -2,-1 -4,-3 -3,-1 -4,-1 -3,-1 -5,-3 -10,-5 -16,-7 1,0 0,0 -3,0 -3,-1 -4,-2 -6,-2 0,0 -1,0 -3,-1 -3,0 -4,0 -4,0 0,0 -2,0 -5,0 -2,0 -3,0 -4,0 -1,0 -2,0 -4,0 -2,0 -4,0 -4,0 0,0 -1,0 -4,0 -2,1 -4,1 -5,1l-3 1c-3,1 -5,1 -5,1 -1,1 -3,1 -5,2 -3,2 -4,2 -3,2 1,-1 0,0 -2,1 -3,1 -5,2 -6,2 0,0 -1,1 -4,2 -2,2 -3,2 -3,2 -1,1 -1,2 -4,4 -2,1 -3,2 -3,2 0,0 -1,1 -3,2 -2,1 -2,2 -3,3 0,0 -1,1 -3,3 -2,2 -2,3 -2,3 -1,1 -2,2 -3,3 -2,2 -2,3 -2,4 -1,1 -2,2 -3,4 -1,2 -2,3 -2,3 -1,3 -3,5 -4,8l0 0 -270 651c0,1 0,1 0,1l-93 224c-9,22 -9,44 0,66 9,22 25,38 47,47zm-940 -874c97,0 181,34 250,103 69,70 103,153 103,251 0,97 -34,180 -103,249 -69,70 -153,105 -250,105 -98,0 -181,-35 -250,-105 -69,-69 -104,-152 -104,-249 0,-98 35,-181 104,-251 69,-69 152,-103 250,-103zm0 881c145,0 269,-52 372,-155 103,-103 155,-227 155,-372 0,-146 -52,-270 -155,-373 -103,-103 -227,-154 -372,-154 -146,0 -270,51 -372,154 -104,103 -156,227 -156,373 0,145 52,269 156,372 102,103 226,155 372,155zm-1480 -438l221 0c4,0 8,0 12,0 2,0 4,0 7,0 43,0 79,13 109,38 30,25 45,56 45,92 0,37 -15,69 -46,95 -30,26 -67,40 -110,40l-238 0 0 -265zm0 -440l221 -1c44,0 80,13 110,38 30,25 44,56 44,93 0,37 -15,69 -45,96 -31,28 -67,41 -109,41l-221 0 0 -267zm238 878c91,0 168,-31 232,-91 65,-60 97,-132 97,-217 0,-91 -36,-167 -108,-227 60,-60 90,-131 90,-213 0,-85 -32,-157 -95,-216 -64,-59 -142,-88 -233,-88l-308 1c-24,1 -44,9 -61,26 -17,17 -26,37 -26,61l0 877c0,24 9,44 26,61 17,17 37,26 61,26l325 0zm-988 0c24,0 44,-9 62,-26 17,-17 25,-38 25,-62l0 -877c0,-24 -8,-44 -25,-62 -18,-17 -38,-25 -62,-25 -24,0 -44,8 -61,25 -18,18 -26,38 -26,62l0 352 -452 0 0 -352c0,-24 -9,-44 -25,-62 -17,-17 -38,-25 -62,-25 -24,0 -44,8 -61,25 -18,18 -26,38 -26,62l0 877c0,24 8,45 26,62 17,17 37,26 61,26 24,0 45,-9 62,-26 16,-17 25,-38 25,-62l0 -351 452 0 0 351c0,24 8,45 26,62 17,17 37,26 61,26zm-1161 -314c4,-74 -21,-139 -73,-194 -64,-68 -155,-103 -275,-104l-4 0c-71,-1 -122,-18 -152,-50 -20,-20 -29,-43 -28,-69 2,-41 20,-77 52,-105 34,-29 73,-44 119,-44 45,0 85,8 120,25 40,18 64,44 73,77 6,23 19,40 39,52 21,12 43,15 65,9 24,-6 41,-19 53,-39 12,-21 15,-43 9,-66 -20,-78 -69,-138 -144,-179 -63,-34 -135,-51 -215,-51 -92,0 -172,30 -237,91 -66,60 -102,135 -105,223 -4,74 21,139 73,194 64,68 155,102 275,104 1,0 1,0 2,0 -1,0 -1,0 1,0l1 0c71,1 122,17 153,50 18,20 28,43 27,68 -2,42 -20,77 -53,106 -33,29 -72,43 -118,43 -45,0 -85,-8 -121,-24 -39,-19 -63,-44 -72,-77 -5,-23 -19,-41 -39,-53 -21,-12 -43,-15 -66,-9 -22,6 -40,19 -52,40 -12,20 -15,42 -9,65 20,79 69,138 145,179 62,35 134,52 214,52 92,0 171,-31 238,-91 66,-61 101,-135 104,-223zm-1623 -83l141 -340 141 340 -282 0zm-255 390c11,4 22,7 33,7 39,0 65,-18 80,-54l70 -170 425 0 71 170c15,36 41,54 80,54 11,0 22,-3 33,-7 22,-9 38,-25 47,-47 9,-22 9,-44 0,-66l-93 -224c0,0 0,0 0,-1l-270 -651 0 0c-1,-3 -3,-5 -4,-8 0,0 -1,-2 -2,-3 -2,-2 -2,-3 -2,-4 0,-1 -1,-2 -3,-4l-3 -3c0,0 0,-1 -2,-3 -2,-2 -3,-3 -3,-3 -1,-1 -2,-2 -3,-3 -2,-2 -3,-2 -3,-2 -1,-1 -2,-2 -4,-3 -2,-2 -3,-3 -3,-3 -1,0 -2,-1 -4,-3 -3,-1 -4,-1 -3,-1 -5,-3 -11,-5 -16,-7 0,0 0,0 -3,0 -3,-1 -4,-2 -6,-2 0,0 -1,0 -3,-1 -3,0 -5,0 -5,0 0,0 -1,0 -4,0 -2,0 -3,0 -4,0 -1,0 -2,0 -4,0 -3,0 -4,0 -4,0 0,0 -2,0 -4,0 -2,1 -4,1 -5,1l-3 1c-3,1 -5,1 -5,1 -1,1 -3,1 -5,2 -3,2 -4,2 -3,2 1,-1 0,0 -3,1 -2,1 -4,2 -5,2 0,0 -2,1 -4,2 -2,2 -3,2 -3,2 -1,1 -2,2 -4,4 -2,1 -3,2 -3,2 0,0 -1,1 -3,2 -2,1 -3,2 -3,3 0,0 -1,1 -3,3 -2,2 -2,3 -2,3 -1,1 -2,2 -3,3 -2,2 -3,3 -3,4 0,1 -1,2 -2,4 -2,2 -2,3 -2,3 -1,3 -3,5 -4,8l0 0 -270 651c0,1 0,1 0,1l-93 224c-9,22 -9,44 0,66 9,22 25,38 47,47zm-1073 -872l136 0c97,0 179,35 248,103 68,69 103,152 103,248 0,97 -35,179 -103,248 -69,68 -152,103 -249,103l-135 2 0 -704zm-85 879l221 -3c145,0 268,-52 371,-155 102,-102 153,-225 153,-370 0,-144 -51,-268 -153,-371 -103,-102 -226,-153 -371,-153l-223 0c-24,0 -44,8 -61,25 -17,17 -25,38 -25,61l0 879c0,24 8,45 25,62 17,16 38,25 61,25l2 0zm-2736 0c135,0 253,-46 354,-137 17,-16 27,-36 28,-60 1,-24 -7,-45 -23,-62 -16,-19 -36,-28 -60,-29 -24,-1 -45,6 -63,23 -66,60 -145,91 -236,91 -96,0 -179,-35 -247,-103 -69,-69 -103,-151 -103,-248 0,-96 34,-179 103,-248 68,-68 151,-102 247,-102 80,0 151,24 214,73 19,14 40,19 64,16 23,-3 43,-13 57,-33 15,-19 21,-40 18,-64 -3,-24 -14,-43 -33,-58 -94,-72 -201,-108 -320,-108 -144,0 -268,51 -371,154 -102,102 -153,226 -153,370 0,145 51,268 153,371 103,103 227,154 371,154zm-1100 -33c2,2 3,4 5,5 0,1 0,1 0,1 1,1 1,1 1,1 2,2 4,4 7,6 0,0 1,1 3,2 1,1 3,3 5,4 0,0 1,1 3,2 1,0 3,1 5,2 1,1 2,2 3,2 1,1 3,1 5,2 2,1 3,1 4,1 1,1 3,1 5,2 3,1 4,1 3,0 2,1 5,1 7,2 3,0 3,0 2,0 4,0 7,1 9,1l0 0c5,0 9,-1 13,-1 1,-1 2,-1 2,-1 5,0 9,-1 13,-3 -1,1 -1,0 1,-1 4,-1 8,-3 12,-5 0,0 0,0 0,0 0,0 0,0 1,0 3,-2 7,-4 11,-7 0,0 0,0 0,0 0,0 0,-1 0,-1 2,-1 3,-2 1,0 1,-1 2,-2 4,-3 2,-2 3,-3 3,-3 0,0 1,-1 3,-3 1,-2 2,-3 3,-3 0,0 0,-1 2,-3 1,-2 3,-4 3,-5l2 -2c1,-2 2,-3 2,-4 0,0 1,-1 3,-4 0,-2 1,-4 1,-4 0,0 1,-2 1,-4 1,-2 2,-3 2,-3 0,-1 1,-3 1,-5 1,-3 1,-3 1,-3 1,-2 1,-3 1,-5 0,-2 1,-4 1,-5 0,0 0,-1 0,-3 0,-2 0,-4 0,-5l0 -880c0,-24 -8,-44 -26,-61 -16,-17 -36,-26 -61,-26 -23,0 -44,9 -61,26 -17,17 -25,37 -25,61l0 626 -528 -679c-11,-15 -25,-25 -43,-30 -18,-6 -36,-5 -53,1 -18,6 -32,17 -43,32 -10,14 -16,31 -16,50l0 879c0,24 9,44 26,61 17,17 37,26 61,26 24,0 44,-9 61,-26 17,-17 26,-37 26,-61l0 -626 527 679c0,0 0,1 0,1 0,0 1,0 1,0zm-1669 -364l141 -340 141 340 -282 0zm-255 390c11,4 22,7 33,7 39,0 65,-18 80,-54l70 -170 426 0 70 170c15,36 42,54 80,54 11,0 22,-3 33,-7 22,-9 38,-25 47,-47 9,-22 9,-44 0,-66l-93 -224c0,0 0,0 0,-1l-270 -651 0 0c-1,-3 -2,-5 -4,-8 0,0 -1,-2 -2,-3 -2,-2 -2,-3 -2,-4 0,-1 -1,-2 -3,-4l-2 -3c0,0 -1,-1 -3,-3 -2,-2 -3,-3 -3,-3 -1,-1 -2,-2 -3,-3 -2,-2 -3,-2 -3,-2 -1,-1 -2,-2 -4,-3 -2,-2 -3,-3 -3,-3 0,0 -2,-1 -4,-3 -3,-1 -4,-1 -3,-1 -5,-3 -10,-5 -16,-7 1,0 0,0 -3,0 -3,-1 -4,-2 -6,-2 0,0 -1,0 -3,-1 -3,0 -4,0 -4,0 0,0 -2,0 -5,0 -2,0 -3,0 -4,0 -1,0 -2,0 -4,0 -2,0 -4,0 -4,0 0,0 -1,0 -4,0 -2,1 -4,1 -5,1l-3 1c-3,1 -5,1 -5,1 -1,1 -3,1 -5,2 -3,2 -4,2 -3,2 1,-1 0,0 -2,1 -3,1 -5,2 -6,2 0,0 -1,1 -4,2 -2,2 -3,2 -3,2 -1,1 -1,2 -4,4 -2,1 -3,2 -3,2 0,0 -1,1 -3,2 -2,1 -2,2 -3,3 0,0 -1,1 -3,3 -2,2 -2,3 -2,3 -1,1 -2,2 -3,3 -2,2 -2,3 -2,4 -1,1 -2,2 -3,4 -1,2 -2,3 -2,3 -1,3 -3,5 -4,8l0 0 -270 651c0,1 0,1 0,1l-93 224c-9,22 -9,44 0,66 9,22 25,38 47,47zm-626 -26c1,2 3,4 5,5 0,1 0,1 0,1 0,1 1,1 1,1 2,2 4,4 6,6 1,0 1,1 3,2 2,1 4,3 5,4 1,0 2,1 3,2 1,0 3,1 5,2 1,1 2,2 3,2 2,1 4,1 6,2 1,1 3,1 3,1 2,1 4,1 6,2 2,1 3,1 3,0 2,1 4,1 7,2 2,0 3,0 2,0 3,0 6,1 9,1l0 0c4,0 8,-1 13,-1 1,-1 2,-1 2,-1 4,0 8,-1 12,-3 -1,1 0,0 2,-1 4,-1 8,-3 11,-5 0,0 0,0 0,0 0,0 1,0 1,0 4,-2 7,-4 11,-7 0,0 0,0 0,0 1,0 1,-1 1,-1 2,-1 2,-2 1,0 1,-1 2,-2 4,-3 1,-2 3,-3 3,-3 0,0 1,-1 2,-3 2,-2 3,-3 3,-3 0,0 1,-1 3,-3 1,-2 2,-4 3,-5l1 -2c2,-2 2,-3 3,-4 0,0 1,-1 2,-4 1,-2 2,-4 2,-4 0,0 0,-2 1,-4 1,-2 1,-3 1,-3 1,-1 1,-3 2,-5 0,-3 0,-3 0,-3 1,-2 1,-3 1,-5 1,-2 1,-4 1,-5 0,0 0,-1 0,-3 1,-2 1,-4 1,-5l0 -880c0,-24 -9,-44 -26,-61 -17,-17 -37,-26 -61,-26 -24,0 -44,9 -61,26 -17,17 -25,37 -25,61l0 626 -528 -679c-11,-15 -26,-25 -44,-30 -18,-6 -35,-5 -52,1 -18,6 -32,17 -43,32 -11,14 -16,31 -16,50l0 879c0,24 9,44 26,61 16,17 37,26 61,26 24,0 44,-9 61,-26 17,-17 25,-37 25,-61l0 -626 528 679c0,0 0,1 0,1 0,0 0,0 1,0zm-1277 33c24,0 44,-9 61,-26 17,-17 26,-37 26,-61l0 -876c0,-24 -9,-44 -26,-61 -17,-17 -37,-25 -61,-25 -24,0 -44,8 -61,25 -17,17 -26,37 -26,61l0 876c0,24 9,44 26,61 17,17 37,26 61,26zm-1138 -1054l0 0c-24,0 -45,8 -61,26 -17,16 -26,36 -26,61l0 880c0,24 9,44 26,61 16,17 37,26 61,26 24,0 44,-9 61,-26 17,-17 26,-37 26,-61l0 -354 320 0c24,0 44,-8 62,-25 17,-17 25,-38 25,-61 0,-24 -8,-45 -25,-62 -18,-17 -38,-25 -62,-25l-320 0 0 -266 443 1 1 0c24,0 44,-8 61,-25 17,-17 25,-38 25,-62 0,-23 -8,-44 -24,-61 -17,-17 -38,-26 -62,-26l-531 -1zm-1757 1c-24,0 -44,9 -61,26 -17,17 -25,37 -25,61l0 879c0,24 8,44 25,61 17,17 37,26 61,26l475 0c24,0 45,-9 62,-26 16,-17 25,-37 25,-61 0,-24 -9,-44 -25,-61 -17,-17 -38,-25 -62,-25l-388 0 0 -793c0,-24 -9,-44 -26,-61 -17,-17 -37,-26 -61,-26zm-1055 656l141 -340 141 340 -282 0zm-255 390c11,4 22,7 33,7 39,0 65,-18 80,-54l70 -170 425 0 71 170c14,36 41,54 80,54 11,0 22,-3 33,-7 22,-9 37,-25 47,-47 9,-22 9,-44 0,-66l-93 -224c0,0 0,0 0,-1l-271 -651 0 0c-1,-3 -2,-5 -3,-8 0,0 -1,-2 -2,-3 -2,-2 -3,-3 -3,-4 0,-1 -1,-2 -3,-4l-2 -3c0,0 -1,-1 -3,-3 -1,-2 -2,-3 -2,-3 -1,-1 -2,-2 -4,-3 -1,-2 -2,-2 -2,-2 -1,-1 -2,-2 -4,-3 -2,-2 -3,-3 -3,-3 -1,0 -2,-1 -4,-3 -3,-1 -4,-1 -3,-1 -5,-3 -11,-5 -17,-7 1,0 0,0 -2,0 -3,-1 -5,-2 -6,-2 0,0 -1,0 -3,-1 -3,0 -5,0 -5,0 0,0 -1,0 -4,0 -2,0 -3,0 -4,0 -1,0 -2,0 -4,0 -3,0 -4,0 -5,0 0,0 -1,0 -3,0 -3,1 -5,1 -5,1l-3 1c-3,1 -5,1 -5,1 -2,1 -3,1 -6,2 -3,2 -4,2 -3,2 2,-1 1,0 -2,1 -2,1 -4,2 -5,2 0,0 -2,1 -4,2 -2,2 -3,2 -3,2 -1,1 -2,2 -4,4 -2,1 -3,2 -3,2 0,0 -2,1 -4,2 -1,1 -2,2 -2,3 0,0 -1,1 -3,3 -2,2 -3,3 -3,3 0,1 -1,2 -3,3 -1,2 -2,3 -2,4 0,1 -1,2 -3,4 -1,2 -1,3 -1,3 -2,3 -3,5 -4,8l0 0 -270 651c0,1 0,1 0,1l-93 224c-9,22 -9,44 0,66 9,22 25,38 47,47zm-627 -26c2,2 3,4 6,5 0,1 0,1 0,1 0,1 0,1 0,1 2,2 4,4 7,6 0,0 1,1 3,2 2,1 4,3 5,4 0,0 2,1 3,2 1,0 3,1 5,2 1,1 2,2 3,2 2,1 3,1 6,2 1,1 2,1 3,1 1,1 3,1 5,2 3,1 4,1 3,0 3,1 5,1 8,2 2,0 2,0 1,0 4,0 7,1 10,1l0 0c4,0 8,-1 12,-1 2,-1 3,-1 3,-1 4,0 8,-1 12,-3 -1,1 0,0 2,-1 3,-1 7,-3 11,-5 0,0 0,0 0,0 0,0 0,0 1,0 3,-2 7,-4 11,-7 0,0 0,0 0,0 0,0 1,-1 1,-1 2,-1 2,-2 1,0 0,-1 2,-2 3,-3 2,-2 3,-3 3,-3 1,0 1,-1 3,-3 2,-2 2,-3 3,-3 0,0 1,-1 2,-3 2,-2 3,-4 3,-5l2 -2c1,-2 2,-3 3,-4 0,0 0,-1 2,-4 1,-2 1,-4 1,-4 1,0 1,-2 2,-4 1,-2 1,-3 1,-3 1,-1 1,-3 1,-5 1,-3 1,-3 1,-3 1,-2 1,-3 1,-5 1,-2 1,-4 1,-5 0,0 0,-1 0,-3 0,-2 1,-4 1,-5l0 -880c0,-24 -9,-44 -26,-61 -17,-17 -37,-26 -61,-26 -24,0 -44,9 -62,26 -16,17 -25,37 -25,61l0 626 -528 -679c-11,-15 -25,-25 -43,-30 -18,-6 -35,-5 -53,1 -17,6 -31,17 -42,32 -11,14 -16,31 -16,50l0 879c0,24 8,44 26,61 16,17 36,26 60,26 24,0 45,-9 61,-26 17,-17 26,-37 26,-61l0 -626 528 679c0,0 0,1 0,1 0,0 0,0 0,0zm-1659 -848c97,0 181,34 250,103 69,70 103,153 103,251 0,97 -34,180 -103,249 -69,70 -153,105 -250,105 -98,0 -181,-35 -250,-105 -69,-69 -104,-152 -104,-249 0,-98 35,-181 104,-251 69,-69 152,-103 250,-103zm0 881c145,0 269,-52 372,-155 103,-103 155,-227 155,-372 0,-146 -52,-270 -155,-373 -103,-103 -227,-154 -372,-154 -146,0 -270,51 -372,154 -104,103 -156,227 -156,373 0,145 52,269 156,372 102,103 226,155 372,155zm-907 -314c3,-74 -21,-139 -73,-194 -64,-68 -156,-103 -275,-104l-4 0c-72,-1 -123,-18 -153,-50 -19,-20 -28,-43 -27,-69 2,-41 19,-77 52,-105 33,-29 73,-44 119,-44 45,0 85,8 119,25 40,18 64,44 73,77 6,23 19,40 40,52 21,12 42,15 65,9 23,-6 40,-19 52,-39 13,-21 16,-43 10,-66 -21,-78 -69,-138 -145,-179 -63,-34 -134,-51 -214,-51 -93,0 -172,30 -238,91 -66,60 -101,135 -105,223 -3,74 21,139 74,194 63,68 155,102 275,104 0,0 1,0 1,0 -1,0 0,0 2,0l0 0c72,1 123,17 153,50 19,20 28,43 27,68 -2,42 -20,77 -53,106 -32,29 -72,43 -118,43 -45,0 -85,-8 -120,-24 -39,-19 -63,-44 -72,-77 -6,-23 -19,-41 -40,-53 -20,-12 -42,-15 -65,-9 -23,6 -41,19 -53,40 -12,20 -15,42 -9,65 21,79 69,138 145,179 63,35 135,52 214,52 92,0 172,-31 238,-91 66,-61 101,-135 105,-223zm-1624 -301l0 -267 218 0c42,0 79,13 109,39 30,26 45,57 45,95 0,35 -14,66 -43,92 -29,25 -64,39 -106,41l-223 0zm545 -133c0,-85 -32,-157 -96,-217 -64,-59 -141,-89 -231,-89l-304 0c-24,0 -44,8 -61,26 -17,16 -25,36 -25,60l0 875c0,24 8,44 25,61 17,17 37,25 61,25 24,0 44,-8 60,-25 18,-17 26,-37 26,-61l0 -350 149 0 195 394c15,32 41,49 77,49 13,0 26,-3 38,-9 22,-11 36,-28 43,-50 8,-23 7,-44 -3,-65l-167 -338c63,-22 114,-59 153,-111 40,-52 60,-111 60,-175zm-1646 574l0 -267 320 0c24,0 45,-8 62,-25 17,-17 25,-38 25,-61 0,-24 -8,-45 -25,-62 -17,-17 -38,-25 -62,-25l-320 0 0 -266 443 1 1 0c24,0 45,-8 61,-25 17,-17 26,-38 26,-62 0,-23 -9,-44 -25,-61 -17,-17 -38,-26 -62,-26l-530 -1 -1 0c-24,0 -45,8 -61,26 -17,16 -26,36 -26,61l0 880c0,24 9,44 26,61 16,17 37,26 61,26l531 0c24,0 45,-9 61,-26 17,-17 26,-37 26,-61 0,-24 -9,-44 -26,-62 -16,-17 -37,-25 -61,-25l-444 0zm-1124 -439l0 -269 220 0c43,0 79,13 110,40 30,26 45,58 45,94 0,37 -14,68 -44,95 -29,25 -65,39 -106,40l-225 0zm-86 -442c-24,0 -45,9 -61,26 -18,16 -26,37 -26,61l0 881c0,24 8,44 26,61 16,17 37,26 61,26 23,0 44,-9 61,-26 17,-17 25,-37 25,-61l0 -353 215 0c3,1 5,1 5,1 0,0 3,0 8,-1l2 0c0,0 1,0 1,0l0 0c88,-3 163,-34 225,-93 62,-60 93,-131 93,-215 0,-84 -32,-156 -97,-217 -64,-60 -141,-90 -232,-90l-306 0zm22870 -9058l0 7866 37 0c854,0 1549,-696 1549,-1549l0 -1692c0,-27 22,-48 49,-48l3419 0c26,0 48,21 48,48l0 3241 30 0c853,0 1549,-696 1549,-1549l0 -6317 -30 0c-853,0 -1549,696 -1549,1550l0 1688c0,26 -22,48 -48,48l-3419 0c-27,0 -49,-22 -49,-48l0 -1688c0,-854 -695,-1550 -1549,-1550l-37 0zm-20459 4617c115,504 460,1691 457,1719 -93,55 -130,118 -170,199 480,-123 802,-68 946,305 71,-44 140,-89 207,-137 -13,-73 -38,-145 -72,-215 158,-141 330,-170 484,-131 633,-622 1026,-1487 1026,-2445 0,-1892 -1535,-3427 -3427,-3427 -582,0 -1130,146 -1609,401 719,-638 1665,-1026 2702,-1026 2248,0 4071,1823 4071,4071 0,4012 -5320,5464 -7614,2749 231,-112 541,-53 677,149 93,-354 562,-689 955,-341 -116,233 -125,495 60,694 66,-676 420,-801 1020,-647 -39,-81 -77,-144 -170,-199 -3,-28 342,-1215 457,-1719zm-398 -674c-106,114 -168,110 -222,290 -95,322 10,344 -153,345l-11 -1049c87,-82 205,-248 299,-273l87 687zm761 0c105,114 168,110 221,290 95,322 -9,344 154,345l11 -1049c-87,-82 -205,-248 -300,-273l-86 687zm-494 665l227 0 48 -229 -324 0 49 229zm113 -3945c-283,255 -372,1254 -376,1649 -5,513 46,1394 177,1881l199 0 199 0c132,-487 183,-1368 178,-1881 -4,-395 -94,-1394 -377,-1649zm0 1400c179,0 323,144 323,322 0,178 -144,322 -323,322 -178,0 -322,-144 -322,-322 0,-178 144,-322 322,-322zm16904 1282l-715 -172c-532,-122 -1310,-358 -1297,-1032 0,-115 21,-227 67,-333 207,-475 793,-606 1260,-606 349,0 686,71 944,240 502,328 1106,344 1625,43l180 -104c-44,-104 -96,-205 -156,-300 -547,-872 -1602,-1190 -2582,-1190 -1008,0 -2129,347 -2674,1260 -200,336 -295,711 -294,1101 1,1339 1176,1948 2325,2214l715 177c531,126 1310,370 1297,1065 0,119 -22,235 -67,343 -208,491 -793,626 -1261,626 -349,0 -983,-208 -1241,-381 -502,-339 -1106,-356 -1625,-45l-180 107c401,1209 1926,1671 3035,1671 1009,0 2130,-358 2675,-1300 200,-346 295,-733 294,-1135 -2,-1383 -1132,-1981 -2325,-2249zm-11932 4521l1059 0c390,0 721,-241 842,-612l382 -1173c6,-20 24,-33 45,-33l2874 0c21,0 39,13 45,33l581 1785 460 0c296,0 550,-131 721,-372 172,-240 213,-523 116,-802l-2102 -6095c-126,-363 -453,-597 -838,-597l-837 0c-385,0 -712,233 -837,597l-2511 7269z"/>
 </g>
</svg>
