<?xml version="1.0" encoding="UTF-8"?>
<!DOCTYPE svg PUBLIC "-//W3C//DTD SVG 1.1//EN" "http://www.w3.org/Graphics/SVG/1.1/DTD/svg11.dtd">
<!-- Creator: CorelDRAW 2020 (64-Bit) -->
<svg xmlns="http://www.w3.org/2000/svg" xml:space="preserve" width="3617px" height="1230px" version="1.1" style="shape-rendering:geometricPrecision; text-rendering:geometricPrecision; image-rendering:optimizeQuality; fill-rule:evenodd; clip-rule:evenodd"
viewBox="0 0 38334 13039"
 xmlns:xlink="http://www.w3.org/1999/xlink"
 xmlns:xodm="http://www.corel.com/coreldraw/odm/2003">
 <defs>
  <style type="text/css">
   <![CDATA[
    .fil0 {fill:#FDFFFA}
   ]]>
  </style>
 </defs>
 <g id="Слой_x0020_1">
  <metadata id="CorelCorpID_0Corel-Layer"/>
  <path class="fil0" d="M14865 2370l79 0c27,0 50,17 59,43l1246 3827c6,20 3,39 -9,55 -11,17 -29,26 -49,26l-2572 0c-21,0 -38,-9 -50,-26 -12,-16 -15,-35 -9,-55l1247 -3827c8,-26 31,-43 58,-43zm7798 10448l0 -340 407 0c30,0 57,-10 79,-31 21,-22 32,-48 32,-79 0,-30 -11,-56 -32,-78 -22,-21 -49,-32 -79,-32l-407 0 0 -338 564 1 1 0c30,0 56,-10 77,-32 22,-22 33,-47 33,-78 0,-30 -11,-56 -32,-78 -21,-22 -48,-33 -78,-33l-675 -2 -1 0c-31,0 -56,11 -77,33 -22,21 -33,47 -33,78l0 1119c0,31 11,57 33,78 21,22 46,33 77,33l676 0c30,0 56,-11 77,-33 22,-21 33,-47 33,-78 0,-30 -11,-56 -33,-78 -21,-22 -47,-32 -77,-32l-565 0zm14832 -897l172 0c123,0 229,44 316,132 87,87 130,192 130,315 0,123 -43,228 -130,315 -87,87 -193,131 -317,131l-171 3 0 -896zm-109 1118l281 -4c185,0 342,-65 473,-196 130,-130 194,-287 194,-471 0,-184 -64,-341 -194,-472 -131,-130 -288,-195 -473,-195l-282 0c-31,0 -57,11 -78,32 -22,22 -33,48 -33,78l0 1117c0,31 11,57 33,79 22,21 48,32 78,32l1 0zm-1340 -782l0 -340 276 0c54,0 101,17 139,50 39,33 58,73 58,121 0,45 -19,84 -55,117 -37,32 -82,49 -135,52l-283 0zm692 -169c0,-108 -40,-200 -122,-276 -81,-76 -179,-114 -294,-114l-386 0c-30,0 -56,11 -78,33 -21,21 -32,47 -32,78l0 1112c0,30 11,56 32,77 22,22 48,32 78,32 30,0 56,-10 77,-32 22,-21 33,-47 33,-77l0 -445 189 0 248 501c20,41 52,62 97,62 17,0 34,-4 49,-11 28,-14 46,-35 55,-64 10,-29 9,-56 -4,-83l-212 -430c80,-28 145,-75 194,-140 51,-67 76,-142 76,-223zm-2139 447l179 -433 180 433 -359 0zm-324 495c14,6 28,9 42,9 49,0 83,-23 102,-68l89 -217 540 0 90 217c19,45 53,68 102,68 14,0 28,-3 42,-9 28,-11 48,-32 59,-59 12,-28 12,-57 0,-85l-118 -284c0,0 0,0 0,-1l-344 -829 0 0c-1,-3 -2,-6 -4,-9 0,-1 -1,-3 -3,-5 -2,-2 -3,-4 -3,-4 0,-1 -1,-3 -3,-5l-3 -4c0,-1 -1,-2 -4,-5 -2,-2 -3,-3 -3,-3 -1,-1 -3,-3 -4,-4 -2,-2 -4,-3 -4,-3 -1,-1 -2,-2 -5,-4 -2,-2 -4,-3 -4,-3 0,0 -2,-2 -5,-3 -3,-2 -4,-2 -4,-2 -6,-4 -13,-7 -20,-9 1,0 0,0 -4,0 -3,-2 -5,-2 -7,-2 0,0 -1,-1 -4,-1 -4,-1 -6,-1 -6,-1 0,0 -2,0 -6,0 -2,0 -4,0 -5,0 -1,0 -2,0 -5,0 -3,0 -5,0 -5,0 0,0 -2,0 -5,1 -3,0 -5,1 -7,1l-3 0c-4,2 -6,2 -7,2 -1,1 -3,2 -6,2 -4,2 -5,3 -4,2 1,-1 0,0 -3,2 -3,1 -5,3 -6,3 -1,0 -3,1 -6,2 -3,3 -4,3 -4,3 -1,1 -2,2 -4,4 -4,2 -5,3 -4,3 -1,0 -2,1 -5,4 -2,1 -3,2 -4,3 0,0 -1,2 -3,4 -2,2 -3,3 -3,4 -1,0 -2,2 -4,4 -1,2 -3,4 -3,5 0,0 -1,2 -3,4 -2,3 -2,5 -2,5 -2,3 -4,6 -5,9l0 0 -343 829c0,1 0,1 0,1l-119 284c-11,28 -11,57 0,85 12,27 32,48 60,59zm-1196 -1112c124,0 230,44 318,132 88,88 132,195 132,318 0,124 -44,230 -132,318 -88,88 -194,133 -318,133 -124,0 -230,-45 -318,-133 -88,-88 -132,-194 -132,-318 0,-123 44,-230 132,-318 88,-88 194,-132 318,-132zm0 1121c185,0 343,-66 474,-197 130,-131 196,-289 196,-474 0,-185 -66,-343 -196,-474 -131,-130 -289,-196 -474,-196 -185,0 -343,66 -473,196 -132,131 -198,289 -198,474 0,185 66,343 198,474 130,131 288,197 473,197zm-1882 -557l281 0c6,0 10,0 16,0 2,0 5,0 8,0 55,0 101,17 139,49 38,32 57,71 57,116 0,48 -19,88 -58,121 -38,34 -85,51 -140,51l-303 0 0 -337zm0 -559l281 -2c55,0 102,17 140,49 38,32 56,71 56,118 0,47 -19,88 -57,122 -40,35 -86,52 -139,52l-281 0 0 -339zm303 1116c115,0 214,-39 295,-115 82,-77 123,-169 123,-277 0,-116 -46,-212 -138,-288 77,-76 115,-167 115,-271 0,-109 -40,-200 -121,-275 -81,-75 -180,-112 -297,-112l-391 2c-30,1 -56,12 -78,33 -21,22 -32,47 -32,77l0 1115c0,31 11,57 33,78 21,22 47,33 78,33l413 0zm-1256 0c30,0 56,-11 78,-33 21,-22 32,-48 32,-79l0 -1115c0,-30 -11,-56 -32,-78 -22,-22 -48,-33 -78,-33 -31,0 -57,11 -79,33 -22,22 -33,48 -33,78l0 447 -575 0 0 -447c0,-30 -10,-56 -31,-78 -22,-22 -48,-33 -79,-33 -30,0 -56,11 -78,33 -22,22 -33,48 -33,78l0 1115c0,31 11,57 33,79 22,22 48,33 78,33 31,0 57,-11 79,-33 21,-22 31,-48 31,-79l0 -446 575 0 0 446c0,31 11,57 33,79 22,22 48,33 79,33zm-1477 -399c5,-95 -27,-177 -93,-247 -81,-86 -198,-130 -350,-133l-5 0c-91,-1 -155,-22 -194,-62 -24,-27 -36,-56 -34,-88 2,-53 24,-98 66,-135 42,-36 93,-55 151,-55 57,0 108,11 152,31 51,24 81,57 93,99 7,28 24,51 50,66 26,15 54,19 83,12 29,-8 51,-25 66,-51 16,-26 20,-54 12,-83 -26,-99 -87,-175 -183,-228 -81,-43 -171,-65 -273,-65 -117,0 -219,39 -302,116 -84,77 -129,172 -134,284 -4,94 27,176 94,247 80,85 197,129 350,131 0,0 1,0 1,0 -1,0 0,0 2,0l1 0c91,2 156,23 194,64 24,25 36,54 35,87 -3,53 -25,98 -67,134 -42,37 -92,55 -151,55 -57,0 -108,-10 -153,-31 -50,-23 -80,-56 -91,-98 -8,-29 -25,-51 -50,-67 -27,-15 -54,-18 -84,-11 -29,8 -51,24 -67,50 -15,27 -18,54 -11,84 26,99 87,175 184,227 80,44 171,66 272,66 117,0 218,-39 303,-116 84,-77 128,-171 133,-283zm-2065 -105l180 -433 180 433 -360 0zm-323 495c13,6 27,9 42,9 49,0 82,-23 101,-68l90 -217 540 0 90 217c18,45 53,68 102,68 14,0 28,-3 42,-9 28,-11 48,-32 59,-59 12,-28 12,-57 0,-85l-118 -284c0,0 0,0 0,-1l-344 -829 0 0c-1,-3 -3,-6 -5,-9 0,-1 0,-3 -2,-5 -2,-2 -3,-4 -3,-4 0,-1 -1,-3 -4,-5l-3 -4c0,-1 -1,-2 -3,-5 -2,-2 -3,-3 -3,-3 -1,-1 -3,-3 -5,-4 -2,-2 -3,-3 -3,-3 -1,-1 -2,-2 -5,-4 -3,-2 -4,-3 -4,-3 -1,0 -2,-2 -5,-3 -4,-2 -5,-2 -4,-2 -7,-4 -13,-7 -21,-9 1,0 0,0 -3,0 -4,-2 -6,-2 -7,-2 0,0 -2,-1 -5,-1 -3,-1 -5,-1 -5,-1 0,0 -2,0 -6,0 -2,0 -4,0 -5,0 -1,0 -3,0 -5,0 -3,0 -5,0 -6,0 0,0 -1,0 -4,1 -3,0 -6,1 -7,1l-4 0c-3,2 -6,2 -6,2 -2,1 -4,2 -7,2 -4,2 -5,3 -4,2 2,-1 1,0 -2,2 -4,1 -6,3 -7,3 0,0 -2,1 -5,2 -3,3 -4,3 -4,3 -1,1 -2,2 -5,4 -3,2 -4,3 -4,3 0,0 -2,1 -4,4 -2,1 -3,2 -4,3 0,0 -1,2 -4,4 -2,2 -3,3 -3,4 0,0 -2,2 -3,4 -2,2 -3,4 -3,5 -1,0 -2,2 -4,4 -1,3 -2,5 -2,5 -1,3 -3,6 -4,9l0 0 -344 829c0,1 0,1 0,1l-118 284c-11,28 -11,57 0,85 11,27 31,48 60,59zm-1365 -1109l173 0c122,0 228,44 315,132 87,87 131,192 131,315 0,123 -44,228 -131,315 -87,87 -193,131 -317,131l-171 3 0 -896zm-108 1118l281 -4c184,0 341,-65 472,-196 130,-130 195,-287 195,-471 0,-184 -65,-341 -195,-472 -131,-130 -288,-195 -472,-195l-283 0c-31,0 -57,11 -78,32 -22,22 -33,48 -33,78l0 1117c0,31 11,57 33,79 22,21 48,32 78,32l2 0zm-3480 0c172,0 322,-58 450,-174 23,-20 34,-46 36,-77 1,-30 -9,-56 -30,-79 -20,-23 -46,-35 -76,-36 -30,-1 -57,8 -79,29 -85,77 -185,116 -301,116 -122,0 -227,-44 -314,-131 -87,-87 -131,-192 -131,-315 0,-123 44,-228 131,-315 87,-87 192,-131 314,-131 102,0 192,31 272,93 24,17 52,25 82,21 30,-4 54,-18 73,-42 18,-24 26,-52 22,-82 -4,-30 -18,-54 -42,-73 -120,-92 -256,-138 -407,-138 -183,0 -340,65 -471,196 -130,130 -195,287 -195,471 0,184 65,341 195,472 131,130 288,195 471,195zm-1399 -42c2,2 4,5 7,7 0,1 0,1 0,1 1,1 1,1 1,1 3,2 5,5 8,7 1,1 2,2 4,3 2,2 5,4 7,5 0,0 2,1 3,3 2,0 4,1 7,2 1,2 2,3 4,3 2,1 4,2 7,2 2,1 3,2 4,2 2,1 4,1 7,2 3,1 4,2 4,1 3,1 6,1 9,2 3,0 3,0 2,0 5,0 9,1 12,1l0 0c5,0 11,-1 16,-1 2,-1 3,-1 3,-1 6,-1 11,-2 16,-4 -1,1 -1,0 2,-1 5,-2 10,-4 15,-6 0,0 0,0 0,0 0,0 0,0 0,0 5,-3 10,-6 14,-10 0,0 0,0 0,0 1,0 1,-1 1,-1 3,-2 3,-2 1,0 2,-1 3,-3 5,-4 3,-2 4,-4 4,-4 1,0 2,-1 3,-4 2,-2 4,-3 4,-4 0,0 1,-1 3,-3 2,-3 4,-5 4,-6l2 -3c2,-2 3,-4 3,-5 0,0 1,-2 3,-5 2,-3 2,-5 2,-5 1,-1 1,-3 2,-5 1,-3 2,-4 2,-5 0,0 1,-2 2,-5 0,-4 0,-5 0,-5 1,-1 2,-3 2,-6 0,-2 1,-4 1,-6 0,0 0,-2 0,-4 0,-2 0,-4 0,-6l0 -1120c0,-30 -10,-56 -32,-77 -21,-22 -47,-33 -78,-33 -30,0 -56,11 -78,33 -21,21 -32,47 -32,77l0 797 -671 -864c-14,-19 -33,-31 -55,-38 -23,-7 -45,-7 -67,2 -23,7 -41,21 -55,40 -13,18 -20,40 -20,63l0 1118c0,31 11,57 33,78 21,22 47,33 77,33 31,0 57,-11 78,-33 21,-21 32,-47 32,-78l0 -796 671 864c0,0 0,1 0,1 0,0 1,0 1,0zm-2122 -462l179 -433 180 433 -359 0zm-324 495c14,6 28,9 42,9 49,0 83,-23 102,-68l89 -217 540 0 90 217c19,45 53,68 102,68 14,0 28,-3 42,-9 28,-11 48,-32 59,-59 12,-28 12,-57 0,-85l-118 -284c0,0 0,0 0,-1l-344 -829 0 0c-1,-3 -2,-6 -4,-9 0,-1 -1,-3 -3,-5 -2,-2 -3,-4 -3,-4 0,-1 -1,-3 -4,-5l-2 -4c0,-1 -1,-2 -4,-5 -2,-2 -3,-3 -3,-3 -1,-1 -3,-3 -5,-4 -1,-2 -3,-3 -3,-3 -1,-1 -2,-2 -5,-4 -2,-2 -4,-3 -4,-3 0,0 -2,-2 -5,-3 -3,-2 -5,-2 -4,-2 -6,-4 -13,-7 -21,-9 2,0 0,0 -3,0 -3,-2 -5,-2 -7,-2 0,0 -1,-1 -4,-1 -4,-1 -6,-1 -6,-1 0,0 -2,0 -6,0 -2,0 -4,0 -5,0 -1,0 -2,0 -5,0 -3,0 -5,0 -5,0 0,0 -2,0 -5,1 -3,0 -6,1 -7,1l-3 0c-4,2 -6,2 -7,2 -1,1 -3,2 -6,2 -4,2 -5,3 -4,2 1,-1 0,0 -3,2 -3,1 -5,3 -7,3 0,0 -2,1 -5,2 -3,3 -4,3 -4,3 -1,1 -2,2 -4,4 -4,2 -5,3 -4,3 -1,0 -2,1 -5,4 -2,1 -3,2 -4,3 0,0 -1,2 -3,4 -2,2 -3,3 -3,4 -1,0 -2,2 -4,4 -2,2 -3,4 -3,5 0,0 -2,2 -3,4 -2,3 -2,5 -2,5 -2,3 -4,6 -5,9l0 0 -343 829c0,1 0,1 0,1l-119 284c-11,28 -11,57 0,85 12,27 32,48 60,59zm-797 -33c2,2 4,5 6,7 0,1 0,1 0,1 1,1 1,1 1,1 3,2 6,5 9,7 1,1 1,2 4,3 2,2 4,4 6,5 1,0 2,1 4,3 1,0 4,1 6,2 2,2 3,3 4,3 2,1 4,2 8,2 1,1 3,2 3,2 2,1 5,1 8,2 3,1 4,2 3,1 3,1 6,1 10,2 2,0 3,0 2,0 4,0 8,1 12,1l0 0c5,0 10,-1 16,-1 1,-1 3,-1 3,-1 5,-1 10,-2 15,-4 -1,1 0,0 3,-1 4,-2 9,-4 14,-6 0,0 0,0 0,0 0,0 0,0 1,0 4,-3 9,-6 14,-10 0,0 0,0 0,0 1,0 1,-1 1,-1 3,-2 3,-2 1,0 1,-1 3,-3 5,-4 2,-2 4,-4 4,-4 0,0 1,-1 3,-4 2,-2 3,-3 4,-4 0,0 1,-1 3,-3 2,-3 3,-5 4,-6l2 -3c2,-2 2,-4 3,-5 0,0 1,-2 3,-5 1,-3 2,-5 2,-5 0,-1 1,-3 2,-5 1,-3 1,-4 1,-5 1,0 2,-2 2,-5 1,-4 1,-5 1,-5 1,-1 1,-3 1,-6 1,-2 1,-4 1,-6 0,0 0,-2 0,-4 1,-2 1,-4 1,-6l0 -1120c0,-30 -11,-56 -33,-77 -21,-22 -47,-33 -77,-33 -30,0 -57,11 -79,33 -21,21 -31,47 -31,77l0 797 -672 -864c-14,-19 -32,-31 -55,-38 -23,-7 -45,-7 -67,2 -22,7 -40,21 -54,40 -14,18 -20,40 -20,63l0 1118c0,31 11,57 33,78 20,22 46,33 77,33 30,0 56,-11 77,-33 22,-21 33,-47 33,-78l0 -796 671 864c0,0 0,1 0,1 0,0 0,0 1,0zm-1623 42c30,0 56,-11 77,-33 22,-21 33,-47 33,-78l0 -1113c0,-31 -11,-56 -33,-78 -21,-21 -47,-32 -77,-32 -31,0 -57,11 -78,32 -22,22 -33,47 -33,78l0 1113c0,31 11,57 33,78 21,22 47,33 78,33zm-1447 -1341l-1 0c-31,0 -57,11 -78,33 -22,21 -33,47 -33,78l0 1119c0,31 11,57 33,78 21,22 47,33 78,33 30,0 56,-11 78,-33 22,-21 33,-47 33,-78l0 -450 407 0c30,0 56,-10 78,-31 22,-22 33,-48 33,-79 0,-30 -11,-56 -33,-78 -22,-21 -48,-32 -78,-32l-407 0 0 -338 563 1 2 0c30,0 56,-10 77,-32 22,-22 32,-47 32,-78 0,-30 -10,-56 -31,-78 -22,-22 -48,-33 -78,-33l-675 -2zm-2235 2c-30,0 -56,11 -78,33 -21,21 -32,47 -32,77l0 1118c0,31 11,57 32,78 22,22 48,33 78,33l604 0c30,0 57,-11 78,-33 21,-21 32,-47 32,-78 0,-30 -11,-56 -32,-77 -21,-22 -48,-32 -78,-32l-494 0 0 -1009c0,-30 -11,-56 -32,-77 -22,-22 -48,-33 -78,-33zm-1343 835l180 -433 180 433 -360 0zm-323 495c13,6 27,9 42,9 49,0 82,-23 101,-68l90 -217 540 0 90 217c18,45 53,68 102,68 14,0 28,-3 42,-9 28,-11 48,-32 59,-59 12,-28 12,-57 0,-85l-118 -284c0,0 0,0 0,-1l-344 -829 0 0c-1,-3 -2,-6 -5,-9 0,-1 0,-3 -2,-5 -2,-2 -3,-4 -3,-4 0,-1 -1,-3 -4,-5l-2 -4c0,-1 -2,-2 -4,-5 -2,-2 -3,-3 -3,-3 -1,-1 -3,-3 -5,-4 -2,-2 -3,-3 -3,-3 -1,-1 -2,-2 -5,-4 -2,-2 -4,-3 -4,-3 -1,0 -2,-2 -5,-3 -4,-2 -5,-2 -4,-2 -6,-4 -13,-7 -21,-9 2,0 0,0 -3,0 -4,-2 -6,-2 -7,-2 0,0 -2,-1 -5,-1 -3,-1 -5,-1 -5,-1 0,0 -2,0 -6,0 -2,0 -4,0 -5,0 -1,0 -3,0 -5,0 -3,0 -5,0 -6,0 0,0 -1,0 -4,1 -3,0 -6,1 -7,1l-3 0c-4,2 -6,2 -7,2 -2,1 -4,2 -7,2 -3,2 -5,3 -3,2 1,-1 0,0 -3,2 -3,1 -5,3 -7,3 0,0 -2,1 -5,2 -3,3 -4,3 -4,3 -1,1 -2,2 -5,4 -3,2 -4,3 -4,3 0,0 -2,1 -4,4 -2,1 -3,2 -4,3 0,0 -1,2 -3,4 -3,2 -3,3 -3,4 -1,0 -2,2 -4,4 -2,2 -3,4 -3,5 -1,0 -2,2 -4,4 -1,3 -2,5 -2,5 -1,3 -3,6 -4,9l0 0 -344 829c0,1 0,1 0,1l-118 284c-11,28 -11,57 0,85 12,27 31,48 60,59zm-797 -33c2,2 4,5 6,7 0,1 0,1 0,1 1,1 1,1 1,1 3,2 6,5 9,7 0,1 1,2 3,3 3,2 5,4 7,5 1,0 2,1 4,3 1,0 4,1 6,2 2,2 3,3 4,3 2,1 4,2 7,2 2,1 4,2 4,2 2,1 5,1 7,2 4,1 5,2 4,1 3,1 6,1 9,2 3,0 4,0 3,0 4,0 8,1 11,1l0 0c6,0 11,-1 17,-1 1,-1 3,-1 3,-1 5,-1 10,-2 15,-4 -1,1 0,0 2,-1 5,-2 10,-4 15,-6 0,0 0,0 0,0 0,0 0,0 1,0 4,-3 9,-6 14,-10 0,0 0,0 0,0 0,0 1,-1 1,-1 2,-2 3,-2 1,0 1,-1 3,-3 5,-4 2,-2 4,-4 4,-4 0,0 1,-1 3,-4 2,-2 3,-3 4,-4 0,0 1,-1 3,-3 1,-3 3,-5 3,-6l3 -3c1,-2 2,-4 3,-5 0,0 1,-2 3,-5 1,-3 2,-5 2,-5 0,-1 1,-3 1,-5 2,-3 2,-4 2,-5 1,0 1,-2 2,-5 1,-4 1,-5 1,-5 1,-1 1,-3 1,-6 1,-2 1,-4 1,-6 0,0 0,-2 0,-4 1,-2 1,-4 1,-6l0 -1120c0,-30 -11,-56 -33,-77 -21,-22 -47,-33 -78,-33 -30,0 -56,11 -78,33 -21,21 -31,47 -31,77l0 797 -672 -864c-14,-19 -32,-31 -55,-38 -23,-7 -45,-7 -67,2 -22,7 -40,21 -54,40 -14,18 -21,40 -21,63l0 1118c0,31 11,57 33,78 21,22 47,33 78,33 30,0 56,-11 77,-33 22,-21 33,-47 33,-78l0 -796 671 864c0,0 0,1 0,1 0,0 0,0 1,0zm-2111 -1079c124,0 230,44 318,132 88,88 132,195 132,318 0,124 -44,230 -132,318 -88,88 -194,133 -318,133 -124,0 -230,-45 -317,-133 -89,-88 -133,-194 -133,-318 0,-123 44,-230 133,-318 87,-88 193,-132 317,-132zm0 1121c185,0 343,-66 474,-197 131,-131 196,-289 196,-474 0,-185 -65,-343 -196,-474 -131,-130 -289,-196 -474,-196 -185,0 -343,66 -473,196 -131,131 -197,289 -197,474 0,185 66,343 197,474 130,131 288,197 473,197zm-1153 -399c4,-95 -27,-177 -93,-247 -81,-86 -198,-130 -350,-133l-5 0c-91,-1 -155,-22 -194,-62 -25,-27 -36,-56 -35,-88 3,-53 25,-98 66,-135 43,-36 93,-55 152,-55 57,0 108,11 152,31 50,24 81,57 92,99 8,28 24,51 51,66 26,15 53,19 83,12 29,-8 51,-25 66,-51 16,-26 20,-54 12,-83 -26,-99 -87,-175 -184,-228 -80,-43 -171,-65 -272,-65 -118,0 -219,39 -302,116 -85,77 -129,172 -134,284 -4,94 27,176 93,247 81,85 198,129 350,131 1,0 1,0 2,0 -1,0 -1,0 2,0l1 0c91,2 155,23 194,64 24,25 36,54 35,87 -3,53 -26,98 -67,134 -42,37 -92,55 -151,55 -57,0 -108,-10 -153,-31 -50,-23 -80,-56 -92,-98 -7,-29 -24,-51 -50,-67 -26,-15 -54,-18 -83,-11 -29,8 -52,24 -67,50 -15,27 -19,54 -11,84 26,99 87,175 184,227 80,44 171,66 272,66 117,0 218,-39 303,-116 83,-77 128,-171 133,-283zm-2065 -383l0 -340 276 0c54,0 101,17 139,50 39,33 58,73 58,121 0,45 -18,84 -55,117 -37,32 -82,49 -134,52l-284 0zm693 -169c0,-108 -41,-200 -122,-276 -81,-76 -180,-114 -295,-114l-386 0c-30,0 -56,11 -77,33 -22,21 -32,47 -32,78l0 1112c0,30 10,56 32,77 21,22 47,32 77,32 31,0 56,-10 77,-32 22,-21 33,-47 33,-77l0 -445 189 0 248 501c20,41 53,62 98,62 17,0 33,-4 49,-11 27,-14 45,-35 55,-64 10,-29 8,-56 -5,-83l-212 -430c80,-28 145,-75 194,-140 51,-67 77,-142 77,-223zm-2093 730l0 -340 407 0c30,0 57,-10 78,-31 22,-22 33,-48 33,-79 0,-30 -11,-56 -33,-78 -21,-21 -48,-32 -78,-32l-407 0 0 -338 563 1 1 0c31,0 57,-10 78,-32 22,-22 33,-47 33,-78 0,-30 -11,-56 -32,-78 -22,-22 -48,-33 -79,-33l-674 -2 -1 0c-31,0 -57,11 -78,33 -22,21 -33,47 -33,78l0 1119c0,31 11,57 33,78 21,22 47,33 78,33l675 0c31,0 57,-11 78,-33 22,-21 33,-47 33,-78 0,-30 -11,-56 -33,-78 -21,-22 -47,-32 -78,-32l-564 0zm-1430 -559l0 -342 279 0c55,0 102,17 141,51 38,34 57,74 57,120 0,47 -18,86 -56,120 -37,33 -82,50 -135,51l-286 0zm-110 -562c-30,0 -56,11 -77,33 -22,21 -33,47 -33,78l0 1120c0,31 11,57 33,78 21,22 47,33 77,33 31,0 57,-11 79,-33 21,-21 31,-47 31,-78l0 -449 274 0c4,1 5,2 5,2 1,0 5,-1 12,-2l1 0c1,0 1,0 1,0l1 0c112,-3 208,-43 286,-118 79,-76 119,-167 119,-273 0,-107 -42,-199 -124,-276 -81,-76 -180,-115 -296,-115l-389 0zm29085 -11519l0 10003 48 0c1085,0 1970,-885 1970,-1970l0 -2151c0,-34 28,-62 62,-62l4347 0c34,0 62,28 62,62l0 4121 38 0c1085,0 1970,-885 1970,-1970l0 -8033 -38 0c-1085,0 -1970,885 -1970,1971l0 2147c0,33 -28,61 -62,61l-4347 0c-34,0 -62,-28 -62,-61l0 -2147c0,-1086 -885,-1971 -1970,-1971l-48 0zm-26018 5871c146,641 585,2151 582,2187 -119,70 -167,150 -217,252 610,-156 1020,-85 1203,388 90,-55 178,-113 264,-174 -17,-92 -49,-184 -93,-273 202,-180 420,-216 616,-167 805,-790 1305,-1891 1305,-3109 0,-2407 -1952,-4358 -4358,-4358 -740,0 -1437,185 -2047,510 914,-812 2118,-1305 3436,-1305 2860,0 5178,2318 5178,5178 0,5102 -6766,6948 -9683,3496 293,-143 687,-68 861,189 118,-451 715,-877 1214,-434 -147,297 -159,629 77,883 84,-860 534,-1019 1297,-824 -50,-102 -98,-182 -217,-252 -3,-36 436,-1546 582,-2187zm-506 -857c-135,146 -214,140 -282,369 -121,410 12,437 -195,439l-14 -1334c110,-104 260,-316 381,-348l110 874zm967 0c135,146 214,140 282,369 121,410 -12,437 196,439l14 -1334c-111,-104 -262,-316 -382,-348l-110 874zm-628 847l288 0 62 -292 -411 0 61 292zm144 -5018c-359,325 -473,1594 -478,2097 -6,652 58,1773 226,2392l252 0 253 0c168,-619 233,-1740 226,-2392 -5,-503 -119,-1772 -479,-2097zm0 1780c227,0 410,184 410,410 0,227 -183,410 -410,410 -226,0 -410,-183 -410,-410 0,-226 184,-410 410,-410zm21497 1631l-909 -218c-676,-155 -1666,-457 -1650,-1314 0,-145 28,-288 86,-422 264,-605 1008,-772 1603,-772 444,0 872,91 1200,306 639,417 1406,438 2067,55l228 -133c-56,-132 -122,-260 -198,-381 -696,-1109 -2038,-1514 -3283,-1514 -1283,0 -2709,442 -3401,1603 -255,427 -376,904 -375,1400 3,1703 1496,2478 2958,2816l909 225c676,160 1666,471 1649,1355 0,150 -27,297 -85,436 -264,623 -1009,796 -1604,796 -443,0 -1250,-265 -1577,-486 -639,-430 -1407,-452 -2067,-56l-229 136c510,1537 2449,2125 3860,2125 1282,0 2708,-455 3401,-1653 255,-441 375,-933 374,-1444 -2,-1758 -1439,-2520 -2957,-2860zm-15174 5749l1347 0c496,0 917,-305 1071,-777l485 -1492c8,-26 31,-43 58,-43l3654 0c27,0 50,17 59,43l738 2269 585 0c376,0 699,-166 917,-472 218,-306 270,-666 148,-1021l-2674 -7751c-160,-462 -576,-759 -1065,-759l-1065 0c-489,0 -905,297 -1064,759l-3194 9244z"/>
 </g>
</svg>
