<?xml version="1.0" encoding="UTF-8"?>
<!DOCTYPE svg PUBLIC "-//W3C//DTD SVG 1.1//EN" "http://www.w3.org/Graphics/SVG/1.1/DTD/svg11.dtd">
<!-- Creator: CorelDRAW 2020 (64-Bit) -->
<svg xmlns="http://www.w3.org/2000/svg" xml:space="preserve" width="745px" height="746px" version="1.1" style="shape-rendering:geometricPrecision; text-rendering:geometricPrecision; image-rendering:optimizeQuality; fill-rule:evenodd; clip-rule:evenodd"
viewBox="0 0 2323 2324"
 xmlns:xlink="http://www.w3.org/1999/xlink"
 xmlns:xodm="http://www.corel.com/coreldraw/odm/2003">
 <defs>
  <style type="text/css">
   <![CDATA[
    .fil0 {fill:#FEFEFE}
   ]]>
  </style>
 </defs>
 <g id="Слой_x0020_1">
  <metadata id="CorelCorpID_0Corel-Layer"/>
  <path class="fil0" d="M669 1209c0,-27 11,-53 31,-72l931 -899c85,-82 221,-80 303,5l174 180c40,41 61,95 60,152 -1,57 -24,111 -65,151l-932 899c-19,19 -46,29 -73,29l-334 -6c-57,-1 -102,-47 -101,-104l6 -335zm1653 35c-20,287 -146,555 -353,754 -113,109 -247,195 -393,251 -153,58 -317,83 -479,74 -603,-34 -1084,-531 -1097,-1135 -3,-163 27,-326 91,-477 61,-144 151,-275 264,-384 207,-200 478,-317 766,-327 59,-2 108,46 107,104 -1,55 -45,99 -100,101 -508,18 -914,432 -923,940 -9,528 413,965 941,974 508,9 936,-382 972,-889 4,-55 49,-97 104,-96 58,1 104,51 100,110zm-725 -688l187 193 176 -171c2,-2 3,-4 3,-6 0,-3 -1,-5 -3,-7l-173 -180c-4,-3 -10,-4 -13,0l-177 171zm-724 699l-3 190 189 3 577 -557 -186 -193 -577 557z"/>
 </g>
</svg>
