<?xml version="1.0" encoding="UTF-8"?>
<!DOCTYPE svg PUBLIC "-//W3C//DTD SVG 1.1//EN" "http://www.w3.org/Graphics/SVG/1.1/DTD/svg11.dtd">
<!-- Creator: CorelDRAW 2020 (64-Bit) -->
<svg xmlns="http://www.w3.org/2000/svg" xml:space="preserve" width="237px" height="151px" version="1.1" style="shape-rendering:geometricPrecision; text-rendering:geometricPrecision; image-rendering:optimizeQuality; fill-rule:evenodd; clip-rule:evenodd"
viewBox="0 0 187 120"
 xmlns:xlink="http://www.w3.org/1999/xlink"
 xmlns:xodm="http://www.corel.com/coreldraw/odm/2003">
 <defs>
  <style type="text/css">
   <![CDATA[
    .fil0 {fill:#FEFEFE}
   ]]>
  </style>
 </defs>
 <g id="Слой_x0020_1">
  <metadata id="CorelCorpID_0Corel-Layer"/>
  <path class="fil0" d="M187 20l0 79c0,12 -9,21 -20,21l-147 0c-11,0 -20,-9 -20,-21l0 -79c0,-11 9,-20 20,-20l147 0c11,0 20,9 20,20zm-9 79l0 -79c0,-6 -5,-11 -11,-11l-147 0c-6,0 -11,5 -11,11l0 79c0,6 5,11 11,11l147 0c6,0 11,-5 11,-11zm-21 -13c3,0 5,2 5,4 0,3 -2,5 -5,5l-38 0c-3,0 -5,-2 -5,-5 0,-2 2,-4 5,-4l38 0zm0 -20c3,0 5,2 5,5 0,2 -2,5 -5,5l-38 0c-3,0 -5,-3 -5,-5 0,-3 2,-5 5,-5l38 0zm-72 20c2,0 4,2 4,4 0,3 -2,5 -4,5l-61 0c-3,0 -5,-2 -5,-5 0,-2 2,-4 5,-4l61 0zm-32 -67c4,-1 7,-2 11,-2 14,0 25,12 25,26 0,14 -11,26 -25,26 -4,0 -7,-1 -11,-3 -3,2 -7,2 -10,2 -14,0 -26,-11 -26,-25 0,-14 12,-26 26,-26 3,0 7,1 10,2zm-9 40c-4,-5 -6,-10 -6,-16 0,-6 2,-12 6,-16 0,0 -1,0 -1,0 -9,0 -16,7 -16,16 0,9 7,16 16,16 0,0 1,0 1,0zm20 0c9,0 16,-7 16,-16 0,-9 -7,-16 -16,-16 -9,0 -16,7 -16,16 0,9 7,16 16,16z"/>
 </g>
</svg>
