<?xml version="1.0" encoding="UTF-8"?>
<!DOCTYPE svg PUBLIC "-//W3C//DTD SVG 1.1//EN" "http://www.w3.org/Graphics/SVG/1.1/DTD/svg11.dtd">
<!-- Creator: CorelDRAW 2020 (64-Bit) -->
<svg xmlns="http://www.w3.org/2000/svg" xml:space="preserve" width="235px" height="152px" version="1.1" style="shape-rendering:geometricPrecision; text-rendering:geometricPrecision; image-rendering:optimizeQuality; fill-rule:evenodd; clip-rule:evenodd"
viewBox="0 0 185 119"
 xmlns:xlink="http://www.w3.org/1999/xlink"
 xmlns:xodm="http://www.corel.com/coreldraw/odm/2003">
 <defs>
  <style type="text/css">
   <![CDATA[
    .fil0 {fill:#EBEDEF}
   ]]>
  </style>
 </defs>
 <g id="Слой_x0020_1">
  <metadata id="CorelCorpID_0Corel-Layer"/>
  <path class="fil0" d="M185 21l0 77c0,12 -10,21 -22,21l-142 0c-11,0 -21,-9 -21,-21l0 -77c0,-11 10,-21 21,-21l142 0c12,0 22,10 22,21zm-12 77l0 -77c0,-5 -5,-9 -10,-9l-142 0c-5,0 -9,4 -9,9l0 77c0,5 4,9 9,9l142 0c5,0 10,-4 10,-9zm-19 -15c3,0 6,3 6,6 0,3 -3,6 -6,6l-37 0c-4,0 -7,-3 -7,-6 0,-3 3,-6 7,-6l37 0zm0 -19c4,0 6,3 6,6 0,4 -3,6 -6,6l-37 0c-4,0 -7,-2 -7,-6 0,-3 3,-6 7,-6l37 0zm-70 19c3,0 6,3 6,6 0,3 -3,6 -6,6l-59 0c-4,0 -6,-3 -6,-6 0,-3 2,-6 6,-6l59 0zm-31 -64c3,-2 7,-2 10,-2 15,0 27,12 27,26 0,15 -12,26 -27,26 -3,0 -7,0 -10,-2 -3,2 -6,2 -10,2 -14,0 -26,-11 -26,-26 0,-14 12,-26 26,-26 4,0 7,0 10,2zm-12 38c-2,-4 -4,-9 -4,-14 0,-5 2,-10 4,-14 -7,1 -12,7 -12,14 0,7 5,13 12,14zm22 0c8,0 15,-6 15,-14 0,-8 -7,-14 -15,-14 -7,0 -14,6 -14,14 0,8 6,14 14,14z"/>
 </g>
</svg>
