<?xml version="1.0" encoding="UTF-8"?>
<!DOCTYPE svg PUBLIC "-//W3C//DTD SVG 1.1//EN" "http://www.w3.org/Graphics/SVG/1.1/DTD/svg11.dtd">
<!-- Creator: CorelDRAW 2020 (64-Bit) -->
<svg xmlns="http://www.w3.org/2000/svg" xml:space="preserve" width="346px" height="330px" version="1.1" style="shape-rendering:geometricPrecision; text-rendering:geometricPrecision; image-rendering:optimizeQuality; fill-rule:evenodd; clip-rule:evenodd"
viewBox="0 0 465 442"
 xmlns:xlink="http://www.w3.org/1999/xlink"
 xmlns:xodm="http://www.corel.com/coreldraw/odm/2003">
 <defs>
  <style type="text/css">
   <![CDATA[
    .fil0 {fill:#E8F1F7}
   ]]>
  </style>
 </defs>
 <g id="Слой_x0020_1">
  <metadata id="CorelCorpID_0Corel-Layer"/>
  <path class="fil0" d="M25 288l35 12c1,0 1,1 2,2 5,11 13,22 21,31 4,5 8,9 13,14 0,0 0,0 1,1l15 78c2,10 10,16 20,16l67 0c11,0 20,-8 20,-19l0 -24c0,0 0,-1 0,-2 1,0 2,0 2,0 15,1 30,1 45,0 0,0 1,0 2,0 0,1 1,2 1,2l0 24c0,11 8,19 19,19l67 0c10,0 18,-6 20,-16l16 -78c0,-1 0,-1 0,-1 5,-5 9,-9 13,-14 10,-11 17,-23 23,-35 5,-10 1,-22 -9,-27 -10,-4 -22,0 -26,10 -5,9 -11,18 -18,26 -4,5 -9,10 -14,15 -4,3 -6,7 -7,11l-13 68c-1,1 -2,2 -3,2l-26 0c-2,0 -3,-1 -3,-3l0 -26c0,-6 -2,-11 -7,-15 -4,-4 -10,-5 -16,-4 -27,4 -55,4 -83,0 -6,-1 -11,0 -16,4 -4,4 -7,9 -7,15l0 26c0,2 -1,3 -3,3l-26 0c-1,0 -2,-1 -3,-2l-13 -68c-1,-4 -3,-8 -7,-11 -5,-5 -10,-10 -14,-15 -8,-9 -15,-19 -19,-30 -2,-5 -7,-9 -12,-11l-41 -14c-1,0 -1,-1 -1,-2l0 -13c0,-1 0,-2 1,-2l33 -11c6,-2 11,-8 13,-15 3,-17 11,-33 22,-47 4,-5 5,-13 2,-20l-8 -18c-1,-1 0,-2 0,-3 1,-1 2,-1 3,-1l29 9c6,1 11,1 16,-2 12,-6 24,-11 37,-14 18,-4 37,-6 56,-6 10,0 19,-9 19,-20 0,-11 -9,-20 -19,-20 -22,0 -43,3 -64,7 -14,3 -27,8 -40,14 -1,1 -1,1 -2,0l-68 -20c-7,-2 -15,0 -20,6 -5,6 -7,14 -3,21l23 52c0,1 0,1 0,2 -8,12 -14,26 -19,40 0,0 -1,1 -1,1l-25 9c-15,5 -25,18 -25,34l0 21c0,16 10,30 25,34zm395 -266c-14,-14 -33,-22 -53,-22 -42,0 -76,34 -76,76l0 17c0,1 0,2 -1,2 -13,12 -21,28 -21,46l0 31c0,9 1,17 5,25 9,21 28,35 50,39 14,3 28,5 43,5 14,0 28,-2 42,-5 22,-4 41,-18 50,-39 4,-8 6,-16 6,-25l0 -31c0,-18 -9,-34 -22,-46 0,0 -1,-1 -1,-2l0 -17c0,-21 -7,-40 -22,-54zm-53 18c9,0 18,3 25,10 6,6 10,14 11,23 0,1 -1,1 -1,2 -1,0 -2,1 -2,1 -4,-1 -8,-2 -12,-2 -14,-2 -28,-2 -43,0 -4,0 -8,1 -11,2 -1,0 -2,-1 -3,-1 0,-1 0,-1 0,-2 1,-19 17,-33 36,-33zm58 132c0,2 0,3 0,5 -3,11 -13,18 -24,21 -23,5 -45,5 -69,0 -10,-3 -21,-10 -23,-21 -1,-2 -1,-3 -1,-5l0 -31c0,-9 6,-16 13,-20 3,-3 7,-4 11,-5 6,-1 12,-2 18,-3 5,0 11,-1 17,-1 5,0 11,1 17,1 6,1 11,2 17,3 4,1 8,2 11,5 8,4 13,11 13,20l0 31zm-251 27c0,-11 -9,-20 -20,-20 -11,0 -20,9 -20,20 0,11 9,20 20,20 11,0 20,-9 20,-20z"/>
 </g>
</svg>
