<?xml version="1.0" encoding="UTF-8"?>
<!DOCTYPE svg PUBLIC "-//W3C//DTD SVG 1.1//EN" "http://www.w3.org/Graphics/SVG/1.1/DTD/svg11.dtd">
<!-- Creator: CorelDRAW 2020 (64-Bit) -->
<svg xmlns="http://www.w3.org/2000/svg" xml:space="preserve" width="294px" height="294px" version="1.1" style="shape-rendering:geometricPrecision; text-rendering:geometricPrecision; image-rendering:optimizeQuality; fill-rule:evenodd; clip-rule:evenodd"
viewBox="0 0 326 326"
 xmlns:xlink="http://www.w3.org/1999/xlink"
 xmlns:xodm="http://www.corel.com/coreldraw/odm/2003">
 <defs>
  <style type="text/css">
   <![CDATA[
    .fil0 {fill:#FEFEFE}
   ]]>
  </style>
 </defs>
 <g id="Слой_x0020_1">
  <metadata id="CorelCorpID_0Corel-Layer"/>
  <path class="fil0" d="M326 161c-1,-4 -2,-7 -4,-9 -3,-3 -7,-6 -11,-6 -4,-1 -8,0 -12,2 -3,1 -5,3 -7,5l-1 2c-8,13 -19,24 -32,31 -13,7 -28,11 -43,11 -23,0 -45,-9 -62,-25 -16,-17 -25,-39 -25,-62 0,-15 3,-30 11,-43 7,-13 18,-24 31,-32l2 -1c2,-2 4,-5 5,-7 2,-4 2,-8 2,-12 -1,-4 -3,-8 -6,-11 -2,-2 -6,-4 -9,-4l-4 0c-43,1 -83,18 -113,48 -30,30 -47,70 -48,113l0 4c1,43 18,83 48,113 30,30 70,47 113,48l4 0c43,-1 83,-18 113,-48 30,-30 47,-70 48,-113l0 -4zm-104 -67c4,2 6,4 8,8l2 6c0,0 0,0 0,0 1,1 1,1 1,1l6 2c4,2 6,4 7,8 1,1 1,3 1,5l0 0c0,1 0,3 -1,5 -1,3 -3,6 -7,7l-6 3c0,0 0,0 -1,0 0,0 0,0 0,0l-2 6c-2,4 -4,7 -8,8 -1,0 -3,1 -5,1 -1,0 -3,-1 -5,-1 -3,-1 -6,-4 -7,-8l-3 -6c0,0 0,0 0,0 0,0 0,0 0,0l-6 -3c-4,-1 -7,-4 -8,-7 0,-2 -1,-4 -1,-5l0 0c0,-2 1,-4 1,-5 1,-4 4,-6 8,-8l6 -2c0,0 0,0 0,-1 0,0 0,0 0,0l3 -6c1,-4 4,-6 7,-8 2,0 4,-1 5,-1l0 0c2,0 4,1 5,1zm-3 12c-1,0 -1,0 -1,0 0,0 0,0 -1,0l0 0c0,0 0,0 0,0 0,0 -1,0 -1,0l-2 6c-1,2 -2,4 -3,5 -2,1 -3,2 -5,3l-6 2c0,1 0,1 -1,1 0,0 0,0 0,1l0 0c0,0 0,0 0,0 1,0 1,1 1,1l6 2c2,1 3,2 5,3 1,2 2,3 3,5l2 6c0,0 1,0 1,1 0,0 0,0 0,0 0,0 1,0 1,0 0,-1 0,-1 1,-1l2 -6c1,-2 2,-3 3,-5 1,-1 3,-2 4,-3l6 -2c1,0 1,-1 1,-1 0,0 0,0 0,0l0 0c0,-1 0,-1 0,-1 0,0 0,0 -1,-1l-6 -2c-1,-1 -3,-2 -4,-3 -1,-1 -2,-3 -3,-5l-2 -6zm62 -100c3,1 6,4 7,8l7 16c0,0 0,1 0,1 0,0 1,0 1,0l0 0 16 7c4,1 7,4 8,7 0,2 1,3 1,5 0,2 -1,3 -1,5 -1,3 -4,6 -8,7l-16 7c0,0 -1,0 -1,0 0,0 0,1 0,1l-7 16c-1,4 -4,7 -7,8 -2,1 -3,1 -5,1 -2,0 -3,0 -5,-1 -3,-1 -6,-4 -7,-8l-7 -16c0,0 0,-1 0,-1 0,0 0,0 -1,0l-16 -7c-4,-1 -7,-4 -8,-7 0,-2 -1,-3 -1,-5l0 0c0,-2 1,-3 1,-5 1,-3 4,-6 8,-7l16 -7 0 0c0,0 1,0 1,0 0,0 0,-1 0,-1l7 -16c1,-4 4,-7 7,-8 2,-1 3,-1 5,-1 2,0 3,0 5,1zm-4 12c0,0 0,-1 0,-1 -1,0 -1,0 -1,0 0,0 0,0 0,0 -1,0 -1,1 -1,1l-7 17c0,1 -1,3 -3,4 -1,2 -2,3 -4,3l0 0 -17 7c0,0 0,0 0,0 -1,1 -1,1 -1,1l0 0c0,0 0,0 1,1 0,0 0,0 0,0l17 7c1,0 3,1 4,3 2,1 3,3 3,4l7 17c0,0 0,1 1,1 0,0 0,0 0,0 0,0 0,0 1,0 0,0 0,-1 0,-1l7 -17c0,-1 1,-3 3,-4 1,-2 3,-3 4,-3l17 -7c0,0 0,0 1,0 0,-1 0,-1 0,-1 0,0 0,0 0,-1 -1,0 -1,0 -1,0l-17 -7 0 0c-1,0 -3,-1 -4,-3 -2,-1 -3,-3 -3,-4l-7 -17zm-135 11c-8,7 -16,17 -22,27 -9,16 -13,33 -14,51l0 5c1,28 12,55 32,75 21,21 47,32 76,33l4 0c18,-1 36,-6 52,-15 10,-5 19,-13 27,-21l6 -7 -1 9c-5,29 -19,56 -40,76 -26,27 -62,42 -99,42 -37,0 -73,-15 -100,-42 -26,-26 -41,-62 -41,-99 0,-37 15,-73 41,-100 21,-20 48,-34 77,-39l9 -1 -7 6z"/>
 </g>
</svg>
