<?xml version="1.0" encoding="UTF-8"?>
<!DOCTYPE svg PUBLIC "-//W3C//DTD SVG 1.1//EN" "http://www.w3.org/Graphics/SVG/1.1/DTD/svg11.dtd">
<!-- Creator: CorelDRAW 2020 (64-Bit) -->
<svg xmlns="http://www.w3.org/2000/svg" xml:space="preserve" width="634px" height="415px" version="1.1" style="shape-rendering:geometricPrecision; text-rendering:geometricPrecision; image-rendering:optimizeQuality; fill-rule:evenodd; clip-rule:evenodd"
viewBox="0 0 1377 901"
 xmlns:xlink="http://www.w3.org/1999/xlink"
 xmlns:xodm="http://www.corel.com/coreldraw/odm/2003">
 <defs>
  <style type="text/css">
   <![CDATA[
    .fil0 {fill:#FEFEFE}
   ]]>
  </style>
 </defs>
 <g id="Слой_x0020_1">
  <metadata id="CorelCorpID_0Corel-Layer"/>
  <path class="fil0" d="M1170 413l-963 0c-114,0 -207,-92 -207,-206 0,-114 93,-207 207,-207l963 0c114,0 207,93 207,207 0,114 -93,206 -207,206zm0 488l-963 0c-114,0 -207,-93 -207,-207 0,-114 93,-206 207,-206l963 0c114,0 207,92 207,206 0,114 -93,207 -207,207zm-807 -829c32,37 50,85 50,135 0,50 -18,97 -50,134l807 0c74,0 135,-60 135,-134 0,-75 -61,-135 -135,-135l-807 0zm651 757c-32,-37 -50,-85 -50,-135 0,-50 18,-97 50,-134l-807 0c-75,0 -135,60 -135,134 0,74 60,135 135,135l807 0z"/>
 </g>
</svg>
