<?xml version="1.0" encoding="UTF-8"?>
<!DOCTYPE svg PUBLIC "-//W3C//DTD SVG 1.1//EN" "http://www.w3.org/Graphics/SVG/1.1/DTD/svg11.dtd">
<!-- Creator: CorelDRAW 2020 (64-Bit) -->
<svg xmlns="http://www.w3.org/2000/svg" xml:space="preserve" width="852px" height="736px" version="1.1" style="shape-rendering:geometricPrecision; text-rendering:geometricPrecision; image-rendering:optimizeQuality; fill-rule:evenodd; clip-rule:evenodd"
viewBox="0 0 3132 2705"
 xmlns:xlink="http://www.w3.org/1999/xlink"
 xmlns:xodm="http://www.corel.com/coreldraw/odm/2003">
 <defs>
  <style type="text/css">
   <![CDATA[
    .fil0 {fill:#FEFEFE;fill-rule:nonzero}
   ]]>
  </style>
 </defs>
 <g id="Слой_x0020_1">
  <metadata id="CorelCorpID_0Corel-Layer"/>
  <path class="fil0" d="M653 396c-53,52 -55,141 -3,195 52,54 136,52 185,-4 296,-310 740,-403 1126,-235 299,130 517,395 601,712l-147 0c-111,0 -168,141 -92,226l294 330c51,56 135,56 185,0l295 -329c24,-27 36,-62 35,-99 -3,-71 -59,-128 -127,-128l-178 0c-89,-427 -372,-790 -767,-961 -482,-210 -1038,-93 -1407,293zm-653 1137c3,72 59,129 127,128l183 0c93,418 373,773 762,942 482,209 1037,93 1406,-294 54,-52 56,-140 4,-194 -52,-54 -136,-53 -185,3 -296,310 -740,403 -1127,235 -292,-127 -507,-384 -595,-692l141 0c112,0 169,-140 93,-226l-295 -329c-50,-56 -134,-56 -185,0l-294 329c-24,26 -36,62 -35,98z"/>
 </g>
</svg>
