<?xml version="1.0" encoding="UTF-8"?>
<!DOCTYPE svg PUBLIC "-//W3C//DTD SVG 1.1//EN" "http://www.w3.org/Graphics/SVG/1.1/DTD/svg11.dtd">
<!-- Creator: CorelDRAW 2020 (64-Bit) -->
<svg xmlns="http://www.w3.org/2000/svg" xml:space="preserve" width="869px" height="895px" version="1.1" style="shape-rendering:geometricPrecision; text-rendering:geometricPrecision; image-rendering:optimizeQuality; fill-rule:evenodd; clip-rule:evenodd"
viewBox="0 0 3172 3265"
 xmlns:xlink="http://www.w3.org/1999/xlink"
 xmlns:xodm="http://www.corel.com/coreldraw/odm/2003">
 <defs>
  <style type="text/css">
   <![CDATA[
    .fil0 {fill:#FEFEFE}
   ]]>
  </style>
 </defs>
 <g id="Слой_x0020_1">
  <metadata id="CorelCorpID_0Corel-Layer"/>
  <path class="fil0" d="M1403 3c33,-3 67,-3 100,-3l166 0c34,0 67,0 101,3 51,4 100,14 147,35 71,33 132,84 176,148 29,43 47,89 60,139 8,33 14,66 20,99l21 124c1,8 6,14 13,18 10,6 25,15 37,11l141 -51c32,-11 63,-23 95,-32 48,-13 97,-20 148,-16 76,5 150,32 213,76 42,29 75,65 104,106 19,27 36,56 54,85l75 126c18,30 36,60 51,91 24,47 40,96 45,148 8,80 -6,161 -42,233 -24,47 -56,87 -95,123 -25,24 -53,46 -80,68l-101 78c-7,6 -10,12 -10,21 0,8 3,15 10,20l102 79c27,22 54,43 79,67 39,36 71,75 95,123 36,72 50,153 42,232 -5,53 -21,102 -45,149 -15,31 -33,61 -51,91l-76 127c-17,28 -34,57 -53,84 -29,41 -62,77 -104,106 -63,44 -137,71 -213,76 -51,4 -100,-3 -148,-16 -32,-9 -63,-20 -94,-32l-141 -51c-8,-3 -15,-2 -22,2 -10,6 -26,14 -28,27l-22 124c-6,33 -12,66 -20,99 -13,50 -31,96 -60,139 -44,64 -105,115 -176,147 -47,22 -96,33 -147,37 -34,2 -67,2 -101,2l-166 0c-33,0 -67,0 -101,-2 -51,-4 -100,-15 -147,-37 -70,-32 -131,-83 -175,-147 -30,-43 -48,-89 -60,-139 -9,-33 -15,-66 -20,-99l-22 -124c-1,-8 -5,-14 -12,-18 -6,-3 -11,-6 -17,-9 -7,-4 -13,-4 -21,-2l-141 51c-31,11 -63,23 -95,32 -48,13 -97,20 -147,16 -77,-5 -151,-32 -214,-76 -41,-29 -75,-65 -104,-106 -19,-27 -36,-56 -53,-84l-76 -127c-17,-30 -35,-60 -51,-91 -23,-47 -39,-96 -45,-149 -8,-79 6,-160 42,-232 24,-48 56,-87 95,-123 25,-24 53,-46 80,-67l98 -79c7,-5 10,-11 10,-19 0,-9 -3,-15 -9,-20l-98 -80c-28,-22 -55,-44 -81,-68 -39,-36 -71,-76 -95,-123 -36,-72 -50,-153 -42,-233 5,-52 22,-101 45,-148 16,-31 34,-61 51,-91l76 -127c17,-28 34,-57 53,-84 29,-41 63,-77 104,-106 63,-44 137,-71 214,-76 50,-4 99,3 147,16 32,9 64,21 95,32l141 51c8,3 15,2 22,-2l0 0c10,-6 26,-14 28,-27l22 -124c6,-33 11,-66 20,-99 12,-50 30,-96 60,-139 44,-64 104,-115 175,-148 47,-21 96,-31 148,-35zm524 470c-8,-45 -16,-108 -41,-145 -19,-27 -43,-48 -73,-62 -42,-19 -105,-16 -150,-16l-153 0c-46,0 -109,-3 -151,16 -29,14 -54,35 -72,62 -26,37 -34,100 -42,145l-23 136c-5,26 -8,62 -19,85 -7,15 -14,25 -26,36 -21,21 -64,40 -91,55 -11,7 -23,14 -34,20 -20,12 -48,29 -70,34 -15,4 -26,5 -41,4 -25,-2 -57,-16 -81,-25l-153 -55c-42,-15 -99,-39 -144,-36 -32,3 -62,14 -88,32 -37,26 -66,80 -89,119l-69 116c-24,40 -61,95 -66,142 -3,33 3,66 18,96 20,42 75,80 111,109l109 87c20,17 49,37 64,57 11,14 16,24 20,41 8,28 5,77 5,107 0,30 3,78 -5,106 -4,17 -9,27 -20,41 -15,21 -43,41 -64,57l-109 87c-37,29 -91,67 -111,110 -15,29 -21,63 -18,95 5,47 42,102 66,142l69 116c23,39 52,93 89,119 26,18 57,29 88,31 45,4 102,-20 144,-35l153 -56c24,-8 56,-22 80,-24 16,-2 27,-1 42,3 28,8 67,33 92,48 12,6 25,13 37,20 20,11 50,26 67,42 11,12 18,21 25,36 11,23 14,59 19,85l23 136c8,45 16,108 42,146 18,26 43,47 72,61 42,19 105,16 151,16l153 0c45,0 108,3 150,-16 30,-14 55,-35 73,-61 26,-38 33,-101 41,-146l24 -136c4,-26 8,-62 19,-85 7,-15 13,-24 25,-36 21,-20 64,-41 91,-56 12,-6 23,-13 35,-20 19,-11 48,-28 69,-34 15,-4 26,-4 42,-3 25,2 56,16 80,24l153 56c42,15 99,39 144,35 32,-2 63,-13 89,-31 37,-26 66,-80 89,-119l69 -116c24,-40 60,-95 65,-142 3,-32 -3,-66 -18,-96 -21,-42 -74,-80 -111,-109l-109 -87c-20,-16 -49,-36 -64,-57 -10,-14 -15,-24 -20,-41 -8,-28 -4,-76 -4,-106 0,-30 -4,-79 4,-107 5,-17 10,-27 20,-41 15,-20 44,-41 64,-57l109 -87c37,-29 91,-67 112,-109 14,-30 20,-63 17,-96 -5,-47 -41,-102 -65,-142l-69 -116c-23,-39 -52,-93 -89,-119 -26,-18 -57,-29 -89,-32 -45,-3 -102,21 -144,36l-153 55c-24,9 -55,23 -80,25 -16,1 -27,0 -42,-4 -28,-7 -65,-32 -91,-47 -12,-6 -25,-13 -37,-19 -20,-11 -51,-27 -67,-44 -12,-11 -18,-20 -25,-35 -11,-23 -15,-59 -19,-84l-24 -137zm-341 582c319,0 578,259 578,578 0,318 -259,577 -578,577 -319,0 -577,-259 -577,-577 0,-319 258,-578 577,-578zm-327 578c0,180 147,327 327,327 181,0 327,-147 327,-327 0,-181 -146,-328 -327,-328 -180,0 -327,147 -327,328z"/>
 </g>
</svg>
