<?xml version="1.0" encoding="UTF-8"?>
<!DOCTYPE svg PUBLIC "-//W3C//DTD SVG 1.1//EN" "http://www.w3.org/Graphics/SVG/1.1/DTD/svg11.dtd">
<!-- Creator: CorelDRAW 2020 (64-Bit) -->
<svg xmlns="http://www.w3.org/2000/svg" xml:space="preserve" width="274px" height="282px" version="1.1" style="shape-rendering:geometricPrecision; text-rendering:geometricPrecision; image-rendering:optimizeQuality; fill-rule:evenodd; clip-rule:evenodd"
viewBox="0 0 110 113"
 xmlns:xlink="http://www.w3.org/1999/xlink"
 xmlns:xodm="http://www.corel.com/coreldraw/odm/2003">
 <defs>
  <style type="text/css">
   <![CDATA[
    .fil0 {fill:#FEFEFE}
   ]]>
  </style>
 </defs>
 <g id="Слой_x0020_1">
  <metadata id="CorelCorpID_0Corel-Layer"/>
  <path class="fil0" d="M49 0c1,0 2,0 3,0l6 0c1,0 2,0 3,0 2,0 4,1 6,1 2,2 5,3 6,6 1,1 2,3 2,5 1,1 1,2 1,3l1 4c0,1 0,1 0,1l5 -2c1,0 2,-1 3,-1 2,-1 4,-1 6,-1 3,1 5,2 7,3 2,1 3,2 4,4 1,1 2,2 2,3l3 4c0,1 1,2 1,3 1,2 2,4 2,6 0,3 0,6 -1,8 -1,2 -2,3 -4,5 -1,0 -2,1 -3,2l-3 3 3 2c1,1 2,2 3,3 2,1 3,2 4,4 1,3 1,6 1,9 0,2 -1,3 -2,5 0,1 -1,2 -1,3l-3 4c0,1 -1,2 -2,3 -1,2 -2,3 -4,4 -2,2 -4,3 -7,3 -2,0 -4,0 -6,-1 -1,0 -2,0 -3,-1l-5 -1c0,0 0,0 0,0l-1 4c0,1 0,2 -1,4 0,1 -1,3 -2,5 -1,2 -4,4 -6,5 -2,1 -4,1 -6,1 -1,0 -2,0 -3,0l-6 0c-1,0 -2,0 -3,0 -2,0 -4,0 -6,-1 -2,-1 -4,-3 -6,-5 -1,-2 -2,-4 -2,-5 0,-2 -1,-3 -1,-4l-1 -4c0,0 0,0 0,0l-5 1c-1,1 -2,1 -3,1 -2,1 -4,1 -6,1 -2,0 -5,-1 -7,-3 -2,-1 -3,-2 -4,-4 -1,-1 -1,-2 -2,-3l-3 -4c0,-1 -1,-2 -1,-3 -1,-2 -2,-3 -2,-5 0,-3 0,-6 2,-9 0,-2 2,-3 3,-4 1,-1 2,-2 3,-3l3 -2 -3 -3c-1,-1 -2,-2 -3,-2 -1,-2 -3,-3 -3,-5 -2,-2 -2,-5 -2,-8 0,-2 1,-4 2,-6 0,-1 1,-2 1,-3l3 -4c1,-1 1,-2 2,-3 1,-2 2,-3 4,-4 2,-2 5,-2 7,-3 2,0 4,0 6,1 1,0 2,1 3,1l5 2c0,0 0,0 0,-1l1 -4c0,-1 1,-2 1,-3 0,-2 1,-4 2,-5 2,-3 4,-4 6,-6 2,0 4,-1 6,-1zm6 36c11,0 21,9 21,21 0,11 -10,20 -21,20 -11,0 -21,-9 -21,-20 0,-12 10,-21 21,-21zm0 10c-6,0 -10,5 -10,11 0,5 4,10 10,10 6,0 10,-5 10,-10 0,-6 -4,-11 -10,-11zm11 -29c0,-1 -1,-3 -1,-4 -1,-1 -2,-2 -2,-2 -2,-1 -4,-1 -5,-1l-6 0c-1,0 -3,0 -4,1 -1,0 -2,1 -2,2 -1,1 -1,3 -2,4l-1 5c0,1 0,2 0,3 -1,1 -1,1 -1,1 -1,1 -3,2 -4,2 -1,1 -2,2 -3,2 -1,1 -1,1 -2,1 -1,-1 -2,-1 -3,-1l-5 -2c-2,-1 -3,-2 -5,-1 -1,0 -2,0 -2,1 -2,0 -3,2 -3,3l-3 4c0,1 -2,3 -2,5 0,1 0,2 1,3 0,1 2,2 3,3l4 3c1,1 2,1 2,2 1,1 1,1 1,2 1,1 0,3 0,4 0,1 1,2 0,4 0,0 0,1 -1,1 0,1 -1,2 -2,2l-4 3c-1,1 -3,3 -3,4 -1,1 -1,2 -1,3 0,1 2,3 2,4l3 4c0,1 1,3 3,4 0,0 1,1 2,1 2,0 3,-1 5,-1l5 -2c1,-1 2,-1 3,-1 1,0 1,0 2,0 1,0 2,1 3,2 1,0 3,1 4,2 0,0 0,1 1,1 0,1 0,3 0,4l1 4c1,2 1,4 2,5 0,1 1,1 2,2 1,0 3,0 4,0l6 0c1,0 3,0 5,0 0,-1 1,-1 2,-2 0,-1 1,-3 1,-5l1 -4c0,-1 0,-3 0,-4 1,0 1,-1 1,-1 1,-1 3,-2 4,-2 1,-1 2,-2 4,-2 0,0 1,0 1,0 1,0 2,0 3,1l5 2c2,0 4,1 5,1 1,0 2,-1 3,-1 1,-1 2,-3 2,-4l3 -4c0,-1 2,-3 2,-4 0,-1 0,-2 -1,-3 0,-2 -2,-3 -3,-4l-4 -3c-1,0 -2,-1 -2,-2 -1,0 -1,-1 -1,-1 0,-2 0,-3 0,-4 0,-1 0,-3 0,-4 0,-1 0,-1 1,-2 0,-1 1,-1 2,-2l4 -3c1,-1 3,-2 3,-3 1,-1 1,-2 1,-3 0,-2 -2,-4 -2,-5l-3 -4c0,-1 -1,-3 -2,-3 -1,-1 -2,-1 -3,-1 -1,-1 -3,0 -5,1l-5 2c-1,0 -2,0 -3,1 0,0 -1,0 -1,-1 -2,0 -3,-1 -4,-1 -1,-1 -3,-2 -4,-3 0,0 0,0 -1,-1 0,-1 0,-2 0,-3l-1 -5z"/>
 </g>
</svg>
