<?xml version="1.0" encoding="UTF-8"?>
<!DOCTYPE svg PUBLIC "-//W3C//DTD SVG 1.1//EN" "http://www.w3.org/Graphics/SVG/1.1/DTD/svg11.dtd">
<!-- Creator: CorelDRAW 2020 (64-Bit) -->
<svg xmlns="http://www.w3.org/2000/svg" xml:space="preserve" width="283px" height="291px" version="1.1" style="shape-rendering:geometricPrecision; text-rendering:geometricPrecision; image-rendering:optimizeQuality; fill-rule:evenodd; clip-rule:evenodd"
viewBox="0 0 212 218"
 xmlns:xlink="http://www.w3.org/1999/xlink"
 xmlns:xodm="http://www.corel.com/coreldraw/odm/2003">
 <defs>
  <style type="text/css">
   <![CDATA[
    .fil0 {fill:#8293A6}
   ]]>
  </style>
 </defs>
 <g id="Слой_x0020_1">
  <metadata id="CorelCorpID_0Corel-Layer"/>
  <path class="fil0" d="M106 71c-21,0 -38,17 -38,38 0,21 17,38 38,38 21,0 38,-17 38,-38 0,-21 -17,-38 -38,-38zm-12 -71c-4,0 -7,1 -10,2 -4,3 -8,6 -11,10 -2,3 -3,6 -4,9 -1,2 -1,4 -1,7l-2 8c0,1 -1,2 -2,3 -1,0 -2,0 -3,0l-10 -3c-2,-1 -4,-2 -6,-3 -3,0 -6,-1 -9,-1 -5,1 -10,2 -14,5 -3,2 -5,4 -7,7 -1,2 -2,4 -3,6l-6 8c-1,2 -2,4 -3,6 -1,3 -3,7 -3,10 0,5 1,10 3,15 1,3 3,5 6,8 2,1 3,3 5,4l7 6c1,0 1,1 1,2 0,1 0,2 -1,3l-7 5c-2,1 -3,3 -5,4 -3,3 -5,5 -6,8 -2,5 -3,10 -3,15 0,4 2,7 3,10 1,2 2,4 3,6l6 9c1,1 2,3 3,5 2,3 4,5 7,7 4,3 9,5 14,5 3,0 6,0 9,-1 2,-1 4,-2 6,-2l10 -4c1,0 2,0 3,0 0,1 0,1 1,1 1,1 1,1 1,2l2 9c0,2 0,4 1,6 1,4 2,7 4,9 3,4 7,8 11,10 3,1 6,2 10,2 2,0 4,0 6,0l12 0c2,0 4,0 6,0 4,0 7,-1 10,-2 4,-2 8,-6 11,-10 2,-2 3,-5 4,-9 1,-2 1,-4 1,-6l2 -9c0,-1 0,-1 2,-3 1,0 2,0 3,0l10 4c2,0 4,1 6,2 3,1 6,1 9,1 5,0 10,-2 14,-5 3,-2 5,-4 7,-7 1,-2 2,-4 3,-5l6 -9c1,-2 2,-4 3,-6 1,-3 2,-6 3,-10 0,-5 -1,-10 -3,-15 -1,-3 -3,-5 -6,-8 -2,-1 -4,-3 -5,-4l-7 -5c-1,-1 -1,-2 -1,-3 0,-1 0,-2 1,-2l7 -6c1,-1 3,-3 5,-4 3,-3 5,-5 6,-8 2,-5 3,-10 3,-15 -1,-3 -2,-7 -3,-10 -1,-2 -2,-4 -3,-6l-6 -8c-1,-2 -2,-4 -3,-6 -2,-3 -4,-5 -7,-7 -4,-3 -9,-4 -14,-5 -3,0 -6,1 -9,1 -2,1 -4,2 -6,3l-10 3c-1,0 -2,0 -4,-1 -1,0 -1,-1 -1,-2l-2 -8c0,-3 0,-5 -1,-7 -1,-3 -2,-6 -4,-9 -3,-4 -7,-7 -11,-10 -3,-1 -6,-2 -10,-2 -2,0 -4,0 -6,0l-12 0c-2,0 -4,0 -6,0zm37 30l1 10c0,1 1,4 1,5 1,1 1,1 2,2 1,1 4,3 6,4 2,1 5,3 6,3 1,0 2,0 3,0 1,0 3,-1 5,-1l10 -4c3,-1 7,-3 10,-3 3,1 5,1 7,3 3,2 5,5 7,8l4 8c2,3 5,7 5,10 0,3 0,5 -1,8 -2,3 -6,5 -8,8l-8 5c-1,1 -3,3 -4,4 0,1 -1,1 -1,2 0,2 0,6 0,7 0,2 0,5 0,7 0,1 1,1 1,2 1,1 3,3 4,4l8 6c2,2 6,4 8,8 1,2 1,4 1,7 0,3 -3,7 -5,10l-4 8c-2,3 -4,7 -7,9 -2,1 -4,2 -7,2 -3,0 -7,-1 -10,-3l-10 -3c-2,-1 -4,-2 -5,-2 -1,0 -2,0 -3,0 -1,1 -4,3 -6,4 -2,1 -5,2 -6,3 -1,1 -1,1 -2,2 0,2 -1,4 -1,6l-1 9c-1,3 -2,8 -3,10 -2,2 -4,4 -6,5 -3,1 -7,1 -11,1l-10 0c-4,0 -8,0 -11,-1 -2,-1 -4,-3 -6,-5 -1,-2 -2,-7 -3,-10l-1 -9c0,-2 -1,-4 -1,-6 -1,-1 -1,-1 -2,-2 -1,-1 -4,-2 -6,-4 -2,0 -5,-2 -6,-3 -1,0 -2,0 -3,0 -1,0 -3,1 -5,2l-10 3c-3,2 -7,3 -10,3 -3,0 -5,-1 -7,-2 -3,-2 -5,-6 -7,-9l-4 -8c-2,-3 -5,-7 -5,-10 0,-3 0,-5 1,-7 2,-4 6,-6 8,-8l8 -6c1,-1 3,-3 4,-4 0,-1 1,-1 1,-2 0,-2 0,-5 0,-7 0,-1 0,-5 0,-7 0,-1 -1,-1 -1,-2 -1,-1 -3,-3 -4,-4l-8 -5c-2,-3 -6,-5 -8,-8 -1,-3 -1,-5 -1,-8 0,-3 3,-7 5,-10l4 -8c2,-3 4,-6 7,-8 2,-2 4,-2 7,-3 3,0 7,2 10,3l10 4c2,0 4,1 5,1 1,0 2,0 3,0 1,0 4,-2 6,-4 2,0 5,-2 6,-3 1,-1 1,-1 2,-2 0,-1 1,-4 1,-5l1 -10c1,-3 2,-7 3,-10 2,-2 4,-4 6,-5 3,-1 7,-1 11,-1l10 0c4,0 8,0 11,1 2,1 4,3 6,5 1,3 2,7 3,10zm-49 79c0,-13 11,-24 24,-24 13,0 24,11 24,24 0,13 -11,24 -24,24 -13,0 -24,-11 -24,-24z"/>
 </g>
</svg>
