<?xml version="1.0" encoding="UTF-8"?>
<!DOCTYPE svg PUBLIC "-//W3C//DTD SVG 1.1//EN" "http://www.w3.org/Graphics/SVG/1.1/DTD/svg11.dtd">
<!-- Creator: CorelDRAW 2020 (64-Bit) -->
<svg xmlns="http://www.w3.org/2000/svg" xml:space="preserve" width="731px" height="731px" version="1.1" style="shape-rendering:geometricPrecision; text-rendering:geometricPrecision; image-rendering:optimizeQuality; fill-rule:evenodd; clip-rule:evenodd"
viewBox="0 0 2372 2371"
 xmlns:xlink="http://www.w3.org/1999/xlink"
 xmlns:xodm="http://www.corel.com/coreldraw/odm/2003">
 <defs>
  <style type="text/css">
   <![CDATA[
    .fil0 {fill:#FEFEFE}
   ]]>
  </style>
 </defs>
 <g id="Слой_x0020_1">
  <metadata id="CorelCorpID_0Corel-Layer"/>
  <path class="fil0" d="M255 918l-2 4c-121,427 65,881 449,1103 220,127 482,162 728,98 251,-65 465,-228 595,-453 127,-220 163,-481 99,-727 -66,-252 -228,-466 -454,-596 -382,-221 -866,-155 -1176,160 -42,42 -110,43 -153,1 -42,-42 -43,-111 -1,-153 149,-152 334,-260 539,-315 304,-81 627,-38 899,119 274,158 472,415 554,720 81,303 38,627 -119,899 -157,273 -415,471 -720,553 -303,81 -628,39 -900,-119 -470,-271 -696,-826 -548,-1348 16,-58 76,-92 133,-76 56,16 90,73 77,129l0 1zm822 159l0 -340c0,-60 49,-109 109,-109 60,0 109,49 109,109l0 340 340 0c60,0 109,49 109,109 0,60 -49,109 -109,109l-340 0 0 340c0,60 -49,109 -109,109 -60,0 -109,-49 -109,-109l0 -340 -340 0c-60,0 -109,-49 -109,-109 0,-60 49,-109 109,-109l340 0z"/>
 </g>
</svg>
