<?xml version="1.0" encoding="UTF-8"?>
<!DOCTYPE svg PUBLIC "-//W3C//DTD SVG 1.1//EN" "http://www.w3.org/Graphics/SVG/1.1/DTD/svg11.dtd">
<!-- Creator: CorelDRAW 2020 (64-Bit) -->
<svg xmlns="http://www.w3.org/2000/svg" xml:space="preserve" width="892px" height="938px" version="1.1" style="shape-rendering:geometricPrecision; text-rendering:geometricPrecision; image-rendering:optimizeQuality; fill-rule:evenodd; clip-rule:evenodd"
viewBox="0 0 221 232"
 xmlns:xlink="http://www.w3.org/1999/xlink"
 xmlns:xodm="http://www.corel.com/coreldraw/odm/2003">
 <defs>
  <style type="text/css">
   <![CDATA[
    .fil0 {fill:#FEFEFE}
   ]]>
  </style>
 </defs>
 <g id="Слой_x0020_1">
  <metadata id="CorelCorpID_0Corel-Layer"/>
  <g id="_2359260536384">
   <path class="fil0" d="M0 76c0,5 4,8 8,8l15 0 0 88 -2 1c-13,4 -21,16 -21,29l0 22c0,5 4,8 8,8l205 0c4,0 8,-3 8,-8l0 -22c0,-13 -9,-25 -21,-29l-2 -1 0 -88 15 0c4,0 8,-3 8,-8l0 -34c0,-3 -3,-6 -6,-7l-102 -34c-1,-1 -2,-1 -3,-1 0,0 -1,0 -2,1l-103 34c-3,1 -5,4 -5,7l0 34 0 0zm205 140l-189 0 0 -14c0,-9 7,-15 15,-15l159 0c8,0 15,6 15,15l0 14 0 0zm-166 -45l0 -87 29 0 0 87 -29 0zm45 0l0 -87 52 0 0 87 -52 0zm69 0l0 -87 29 0 0 87 -29 0zm-137 -103l0 -20 94 -32 95 32 0 20 -189 0z"/>
  </g>
 </g>
</svg>
