<?xml version="1.0" encoding="UTF-8"?>
<!DOCTYPE svg PUBLIC "-//W3C//DTD SVG 1.1//EN" "http://www.w3.org/Graphics/SVG/1.1/DTD/svg11.dtd">
<!-- Creator: CorelDRAW 2020 (64-Bit) -->
<svg xmlns="http://www.w3.org/2000/svg" xml:space="preserve" width="334px" height="334px" version="1.1" style="shape-rendering:geometricPrecision; text-rendering:geometricPrecision; image-rendering:optimizeQuality; fill-rule:evenodd; clip-rule:evenodd"
viewBox="0 0 433 433"
 xmlns:xlink="http://www.w3.org/1999/xlink"
 xmlns:xodm="http://www.corel.com/coreldraw/odm/2003">
 <defs>
  <style type="text/css">
   <![CDATA[
    .fil0 {fill:#FEFEFE}
   ]]>
  </style>
 </defs>
 <g id="Слой_x0020_1">
  <metadata id="CorelCorpID_0Corel-Layer"/>
  <path class="fil0" d="M414 316l-395 0c-11,0 -19,7 -19,19 0,11 8,19 19,19l395 0c11,0 19,-8 19,-19 0,-12 -8,-19 -19,-19zm0 79l-395 0c-11,0 -19,7 -19,19 0,11 8,19 19,19l395 0c11,0 19,-8 19,-19 0,-12 -8,-19 -19,-19zm-40 -395l-316 0c-33,0 -58,25 -58,58l0 158c0,33 25,59 58,59l316 0c33,0 59,-26 59,-59l0 -158c0,-33 -26,-58 -59,-58zm21 216c0,13 -8,21 -21,21l-316 0c-12,0 -20,-8 -20,-21l0 -158c0,-12 8,-20 20,-20l316 0c13,0 21,8 21,20l0 158zm-297 -98c-11,0 -19,8 -19,19 0,12 8,19 19,19 11,0 19,-7 19,-19 0,-11 -8,-19 -19,-19zm118 -39c-33,0 -58,25 -58,58 0,33 25,59 58,59 33,0 59,-26 59,-59 0,-33 -26,-58 -59,-58zm0 79c-12,0 -20,-8 -20,-21 0,-12 8,-20 20,-20 13,0 21,8 21,20 0,13 -8,21 -21,21zm119 -40c-12,0 -19,8 -19,19 0,12 7,19 19,19 11,0 19,-7 19,-19 0,-11 -8,-19 -19,-19z"/>
 </g>
</svg>
