<?xml version="1.0" encoding="UTF-8"?>
<!DOCTYPE svg PUBLIC "-//W3C//DTD SVG 1.1//EN" "http://www.w3.org/Graphics/SVG/1.1/DTD/svg11.dtd">
<!-- Creator: CorelDRAW 2020 (64-Bit) -->
<svg xmlns="http://www.w3.org/2000/svg" xml:space="preserve" width="2650px" height="943px" version="1.1" style="shape-rendering:geometricPrecision; text-rendering:geometricPrecision; image-rendering:optimizeQuality; fill-rule:evenodd; clip-rule:evenodd"
viewBox="0 0 28246 10052"
 xmlns:xlink="http://www.w3.org/1999/xlink"
 xmlns:xodm="http://www.corel.com/coreldraw/odm/2003">
 <defs>
  <style type="text/css">
   <![CDATA[
    .fil0 {fill:#FDFFFA}
   ]]>
  </style>
 </defs>
 <g id="Слой_x0020_1">
  <metadata id="CorelCorpID_0Corel-Layer"/>
  <g id="_1613257815808">
   <path class="fil0" d="M10348 9800l0 -388 465 0c35,0 65,-12 90,-36 24,-25 37,-55 37,-89 0,-35 -13,-65 -37,-90 -25,-24 -55,-36 -90,-36l-465 0 0 -387 644 2 1 0c35,0 65,-12 89,-37 24,-25 37,-54 37,-89 0,-34 -12,-64 -36,-90 -25,-24 -55,-37 -90,-37l-771 -2 -1 0c-35,0 -64,13 -88,38 -25,24 -38,53 -38,89l0 1278c0,35 13,64 38,89 24,25 53,37 88,37l772 0c35,0 65,-12 89,-37 24,-25 37,-54 37,-89 0,-34 -13,-64 -37,-89 -24,-25 -54,-37 -89,-37l-645 0zm16940 -1024l197 0c140,0 260,50 360,150 99,100 149,220 149,360 0,140 -50,260 -149,360 -100,99 -220,149 -362,149l-195 4 0 -1023zm-125 1276l322 -4c210,0 390,-75 539,-224 148,-148 222,-328 222,-538 0,-210 -74,-390 -222,-539 -149,-148 -329,-223 -539,-223l-324 0c-35,0 -64,12 -88,36 -25,26 -38,56 -38,90l0 1276c0,35 13,65 38,90 25,24 54,36 88,36l2 0zm-1530 -893l0 -388 315 0c62,0 115,20 159,57 44,38 66,83 66,138 0,51 -21,96 -63,134 -43,37 -94,56 -154,59l-323 0zm791 -193c0,-123 -47,-228 -140,-315 -93,-86 -205,-130 -336,-130l-441 0c-34,0 -64,13 -89,38 -24,24 -36,53 -36,88l0 1271c0,34 12,63 36,88 25,24 55,36 89,36 35,0 64,-12 88,-36 25,-25 38,-54 38,-88l0 -509 216 0 282 573c23,47 60,70 112,70 19,0 38,-4 56,-13 31,-16 52,-40 63,-72 11,-33 9,-64 -6,-95l-242 -491c92,-32 166,-85 222,-160 58,-76 88,-162 88,-255zm-2444 510l205 -494 205 494 -410 0zm-370 566c16,7 32,10 48,10 56,0 94,-26 116,-78l102 -247 617 0 103 247c21,52 60,78 116,78 16,0 32,-3 48,-10 32,-13 55,-36 68,-68 13,-32 13,-64 0,-96l-135 -325c0,0 0,0 0,-1l-393 -947 0 0c-1,-3 -3,-7 -5,-10 0,-1 -1,-3 -3,-6 -2,-2 -3,-4 -3,-5 0,-1 -2,-2 -5,-5l-3 -5c0,0 -1,-2 -4,-5 -2,-2 -3,-3 -3,-4 -1,-1 -4,-2 -6,-5 -2,-2 -3,-3 -4,-3 0,0 -2,-2 -5,-4 -3,-2 -4,-3 -4,-3 -1,-1 -3,-2 -7,-4 -3,-2 -5,-3 -4,-2 -7,-5 -15,-8 -23,-10 1,0 0,0 -5,-1 -3,-2 -6,-2 -7,-2 0,0 -2,-1 -5,-1 -5,-1 -7,-1 -7,-1 0,0 -2,0 -6,0 -3,0 -5,0 -6,0 -1,0 -3,0 -6,0 -4,0 -6,0 -6,0 0,0 -2,0 -6,1 -3,0 -6,1 -7,1l-4 1c-5,1 -7,2 -8,2 -2,1 -4,1 -7,2 -5,2 -6,3 -5,2 2,-1 1,0 -3,2 -3,2 -6,3 -7,4 -1,0 -3,1 -7,3 -3,2 -4,3 -4,3 -1,1 -2,2 -5,4 -4,2 -5,3 -5,3 0,0 -2,2 -5,5 -2,1 -3,2 -4,3 0,1 -1,2 -4,5 -3,2 -4,4 -4,4 0,1 -2,2 -4,5 -2,3 -3,4 -3,5 -1,1 -2,3 -4,5 -2,4 -3,6 -3,6 -2,3 -4,7 -5,10l0 0 -392 947c0,1 0,1 0,1l-136 325c-12,32 -12,64 0,96 14,32 37,55 69,68zm-1366 -1270c141,0 263,51 363,151 100,101 151,222 151,364 0,141 -51,262 -151,362 -100,101 -222,152 -363,152 -142,0 -262,-51 -363,-152 -101,-100 -151,-221 -151,-362 0,-142 50,-263 151,-364 101,-100 221,-151 363,-151zm0 1280c211,0 391,-75 541,-225 149,-149 224,-329 224,-540 0,-212 -75,-392 -224,-542 -150,-149 -330,-224 -541,-224 -211,0 -392,75 -541,224 -149,150 -225,330 -225,542 0,211 76,391 225,540 149,150 330,225 541,225zm-2150 -635l322 0c6,0 12,0 17,0 3,0 6,0 10,0 62,0 115,18 159,55 43,36 65,81 65,133 0,54 -22,100 -66,138 -44,38 -98,58 -160,58l-347 0 0 -384zm0 -639l322 -2c63,0 116,19 159,56 44,36 65,80 65,134 0,54 -22,101 -66,140 -45,40 -98,59 -158,59l-322 0 0 -387zm347 1274c131,0 244,-44 337,-131 93,-88 140,-193 140,-316 0,-133 -52,-243 -157,-329 87,-87 131,-191 131,-310 0,-124 -46,-228 -138,-314 -92,-85 -205,-128 -339,-128l-447 3c-35,1 -64,13 -89,37 -24,25 -36,54 -36,88l0 1274c0,35 12,64 37,89 24,25 54,37 89,37l472 0zm-1435 0c34,0 64,-12 89,-37 25,-25 37,-55 37,-90l0 -1274c0,-34 -12,-64 -37,-89 -25,-25 -55,-38 -89,-38 -35,0 -65,13 -90,38 -25,25 -37,55 -37,89l0 511 -657 0 0 -511c0,-34 -12,-64 -36,-89 -25,-25 -55,-38 -90,-38 -35,0 -64,13 -89,38 -25,25 -38,55 -38,89l0 1274c0,35 13,65 38,90 25,25 54,37 89,37 35,0 65,-12 90,-37 24,-25 36,-55 36,-90l0 -510 657 0 0 510c0,35 12,65 37,90 25,25 55,37 90,37zm-1686 -455c5,-108 -31,-202 -107,-283 -92,-98 -225,-148 -399,-151l-6 0c-104,-1 -178,-25 -222,-71 -28,-30 -41,-64 -39,-101 3,-60 28,-111 75,-153 49,-42 106,-63 173,-63 66,0 124,11 174,35 58,27 93,64 106,112 8,33 27,59 57,76 30,18 61,22 95,14 33,-9 59,-28 76,-58 18,-30 22,-62 13,-95 -29,-114 -99,-200 -210,-260 -91,-50 -195,-75 -311,-75 -134,0 -249,45 -345,133 -96,88 -147,196 -152,324 -6,107 30,201 106,282 92,98 226,148 400,150 0,0 1,0 2,0 -2,0 -1,0 2,0l1 0c104,2 178,26 222,73 27,29 41,62 39,99 -3,61 -28,112 -76,154 -48,42 -105,62 -172,62 -65,0 -124,-11 -175,-35 -57,-27 -92,-64 -104,-112 -9,-33 -28,-59 -58,-77 -30,-17 -61,-21 -95,-12 -33,9 -59,27 -76,57 -17,30 -22,62 -13,95 29,114 99,201 210,260 91,50 195,75 311,75 133,0 249,-44 345,-132 96,-88 147,-196 153,-323zm-2359 -121l205 -494 206 494 -411 0zm-369 566c15,7 31,10 48,10 56,0 94,-26 116,-78l102 -247 617 0 103 247c21,52 60,78 116,78 16,0 32,-3 48,-10 32,-13 54,-36 68,-68 13,-32 13,-64 0,-96l-136 -325c0,0 0,0 0,-1l-392 -947 0 0c-1,-3 -3,-7 -5,-10 0,-1 -1,-3 -3,-6 -3,-2 -4,-4 -4,-5 0,-1 -1,-2 -4,-5l-3 -5c0,0 -1,-2 -4,-5 -2,-2 -3,-3 -3,-4 -2,-1 -4,-2 -6,-5 -2,-2 -4,-3 -4,-3 -1,0 -2,-2 -5,-4 -3,-2 -5,-3 -5,-3 -1,-1 -3,-2 -6,-4 -4,-2 -5,-3 -4,-2 -8,-5 -15,-8 -24,-10 2,0 0,0 -4,-1 -4,-2 -6,-2 -8,-2 0,0 -1,-1 -5,-1 -4,-1 -6,-1 -6,-1 0,0 -2,0 -7,0 -2,0 -4,0 -6,0 -1,0 -3,0 -5,0 -4,0 -6,0 -7,0 0,0 -1,0 -5,1 -4,0 -6,1 -8,1l-4 1c-4,1 -7,2 -7,2 -2,1 -4,1 -8,2 -4,2 -5,3 -4,2 2,-1 0,0 -3,2 -4,2 -6,3 -8,4 0,0 -2,1 -6,3 -3,2 -4,3 -4,3 -1,1 -3,2 -6,4 -3,2 -5,3 -4,3 -1,0 -2,2 -5,5 -2,1 -3,2 -5,3 0,1 -1,2 -4,5 -2,2 -3,4 -3,4 -1,1 -2,2 -4,5 -2,3 -3,4 -3,5 -1,1 -2,3 -5,5 -1,4 -2,6 -2,6 -2,3 -4,7 -5,10l0 0 -392 947c0,1 0,1 0,1l-136 325c-13,32 -13,64 0,96 14,32 36,55 69,68zm-1558 -1266l196 0c141,0 261,50 360,150 100,100 150,220 150,360 0,140 -50,260 -150,360 -99,99 -220,149 -361,149l-195 4 0 -1023zm-125 1276l321 -4c211,0 390,-75 539,-224 149,-148 223,-328 223,-538 0,-210 -74,-390 -223,-539 -149,-148 -328,-223 -539,-223l-323 0c-35,0 -64,12 -89,36 -25,26 -37,56 -37,90l0 1276c0,35 12,65 37,90 25,24 55,36 89,36l2 0zm-3974 0c197,0 368,-66 514,-198 26,-24 40,-53 41,-88 1,-35 -10,-65 -33,-90 -23,-27 -53,-41 -88,-42 -34,-1 -65,10 -90,33 -97,88 -211,133 -344,133 -140,0 -259,-50 -359,-150 -99,-99 -149,-219 -149,-359 0,-141 50,-261 149,-361 100,-99 219,-149 359,-149 116,0 220,35 311,106 28,20 59,29 94,24 33,-4 62,-20 83,-48 21,-27 30,-59 25,-93 -5,-35 -21,-62 -48,-83 -137,-106 -292,-158 -465,-158 -209,0 -389,74 -538,223 -148,149 -223,328 -223,539 0,209 75,389 223,538 149,149 329,223 538,223zm-1597 -48c2,3 4,6 7,9 0,0 0,1 0,1 1,0 1,1 1,1 3,2 7,5 10,8 1,1 2,2 4,4 3,2 6,3 8,5 1,0 2,1 4,3 2,1 5,2 7,3 2,2 3,2 5,2 2,2 5,3 8,4 2,1 4,2 5,2 2,0 5,1 8,2 4,1 5,2 4,1 3,1 7,1 11,2 3,1 4,1 2,0 5,1 10,1 14,1l0 0c6,0 12,0 18,-1 2,-1 4,-1 4,-1 6,-1 12,-2 18,-4 -2,0 -1,0 2,-1 5,-3 11,-5 17,-8 0,0 0,0 0,0 0,0 0,0 1,0 5,-3 10,-6 16,-10 0,0 0,0 0,0 0,-1 1,-2 1,-2 3,-2 3,-2 1,-1 1,-1 3,-2 5,-4 3,-2 5,-4 5,-4 0,0 1,-2 4,-4 2,-2 3,-4 4,-5 0,0 1,-1 3,-4 2,-3 4,-5 5,-6l2 -3c2,-4 3,-6 4,-7 0,0 1,-2 3,-5 2,-4 2,-6 2,-6 1,-1 2,-3 2,-6 2,-3 2,-5 2,-5 1,-1 2,-3 2,-7 1,-4 1,-5 1,-5 1,-2 2,-4 2,-7 0,-2 1,-5 1,-6 0,-1 0,-3 0,-5 0,-3 1,-5 1,-7l0 -1279c0,-35 -12,-64 -38,-89 -24,-24 -53,-37 -88,-37 -35,0 -64,13 -90,37 -24,25 -36,54 -36,89l0 910 -766 -987c-17,-21 -37,-36 -63,-43 -26,-8 -52,-8 -77,2 -26,8 -46,24 -62,45 -15,22 -23,46 -23,73l0 1277c0,35 12,64 37,89 24,25 54,37 89,37 34,0 64,-12 88,-37 25,-25 37,-54 37,-89l0 -909 767 986c0,1 0,1 0,1 0,0 0,0 1,0zm-2425 -528l205 -494 206 494 -411 0zm-369 566c15,7 31,10 48,10 56,0 94,-26 116,-78l102 -247 617 0 103 247c21,52 60,78 116,78 16,0 32,-3 48,-10 32,-13 55,-36 68,-68 13,-32 13,-64 0,-96l-135 -325c0,0 0,0 0,-1l-393 -947 0 0c-1,-3 -3,-7 -5,-10 0,-1 -1,-3 -3,-6 -2,-2 -3,-4 -3,-5 0,-1 -2,-2 -5,-5l-3 -5c0,0 -1,-2 -4,-5 -2,-2 -3,-3 -3,-4 -2,-1 -4,-2 -6,-5 -2,-2 -3,-3 -4,-3 0,0 -2,-2 -5,-4 -3,-2 -5,-3 -5,-3 0,-1 -2,-2 -6,-4 -4,-2 -5,-3 -4,-2 -7,-5 -15,-8 -24,-10 2,0 0,0 -4,-1 -3,-2 -6,-2 -8,-2 0,0 -1,-1 -5,-1 -4,-1 -6,-1 -6,-1 0,0 -2,0 -7,0 -2,0 -4,0 -6,0 -1,0 -2,0 -5,0 -4,0 -6,0 -7,0 0,0 -1,0 -5,1 -3,0 -6,1 -7,1l-5 1c-4,1 -6,2 -7,2 -2,1 -4,1 -7,2 -5,2 -6,3 -5,2 2,-1 0,0 -3,2 -4,2 -6,3 -7,4 -1,0 -3,1 -7,3 -3,2 -4,3 -4,3 -1,1 -2,2 -5,4 -4,2 -6,3 -5,3 -1,0 -2,2 -5,5 -2,1 -3,2 -4,3 0,1 -2,2 -4,5 -3,2 -4,4 -4,4 0,1 -2,2 -4,5 -2,3 -3,4 -3,5 -1,1 -2,3 -4,5 -2,4 -3,6 -3,6 -2,3 -4,7 -5,10l0 0 -392 947c0,1 0,1 0,1l-136 325c-12,32 -12,64 0,96 14,32 37,55 69,68zm-910 -38c2,3 4,6 7,9 0,0 0,1 0,1 1,0 1,1 1,1 3,2 6,5 10,8 1,1 2,2 4,4 3,2 5,3 8,5 0,0 2,1 4,3 2,1 4,2 7,3 2,2 3,2 4,2 3,2 5,3 9,4 2,1 4,2 4,2 2,0 5,1 9,2 3,1 5,2 4,1 3,1 7,1 11,2 3,1 3,1 2,0 5,1 10,1 13,1l0 0c7,0 13,0 19,-1 2,-1 3,-1 3,-1 7,-1 12,-2 18,-4 -1,0 0,0 3,-1 5,-3 11,-5 16,-8 0,0 0,0 0,0 0,0 1,0 1,0 5,-3 11,-6 16,-10 0,0 0,0 0,0 1,-1 1,-2 1,-2 3,-2 4,-2 2,-1 1,-1 3,-2 5,-4 3,-2 4,-4 4,-4 1,0 2,-2 4,-4 3,-2 4,-4 5,-5 0,0 1,-1 3,-4 2,-3 4,-5 4,-6l3 -3c2,-4 3,-6 4,-7 0,0 1,-2 3,-5 1,-4 2,-6 2,-6 1,-1 1,-3 2,-6 1,-3 2,-5 2,-5 1,-1 1,-3 2,-7 1,-4 1,-5 1,-5 1,-2 1,-4 1,-7 1,-2 2,-5 2,-6 0,-1 0,-3 0,-5 0,-3 1,-5 1,-7l0 -1279c0,-35 -13,-64 -38,-89 -24,-24 -54,-37 -89,-37 -34,0 -64,13 -89,37 -24,25 -36,54 -36,89l0 910 -767 -987c-16,-21 -37,-36 -63,-43 -26,-8 -51,-8 -76,2 -26,8 -47,24 -62,45 -16,22 -24,46 -24,73l0 1277c0,35 13,64 38,89 24,25 53,37 88,37 35,0 65,-12 89,-37 25,-25 37,-54 37,-89l0 -909 767 986c0,1 0,1 0,1 0,0 0,0 1,0zm-1854 48c34,0 64,-12 88,-37 25,-25 37,-54 37,-89l0 -1272c0,-35 -12,-64 -37,-88 -24,-25 -54,-37 -88,-37 -35,0 -65,12 -89,37 -25,24 -37,53 -37,88l0 1272c0,35 12,64 37,89 24,25 54,37 89,37zm-1653 -1531l-1 0c-35,0 -65,13 -88,38 -25,24 -38,53 -38,89l0 1278c0,35 13,64 38,89 23,25 53,37 88,37 35,0 65,-12 90,-37 24,-25 37,-54 37,-89l0 -514 465 0c34,0 64,-12 89,-36 25,-25 37,-55 37,-89 0,-35 -12,-65 -37,-90 -25,-24 -55,-36 -89,-36l-465 0 0 -387 644 2 1 0c35,0 64,-12 88,-37 25,-25 37,-54 37,-89 0,-34 -12,-64 -36,-90 -25,-24 -54,-37 -89,-37l-771 -2z"/>
   <path class="fil0" d="M10955 1747l58 0c20,0 37,12 43,31l919 2821c4,14 2,28 -7,40 -8,13 -21,19 -36,19l-1896 0c-15,0 -28,-6 -37,-19 -8,-12 -11,-26 -6,-40l919 -2821c6,-19 23,-31 43,-31zm11030 -1615l0 7371 35 0c799,0 1452,-652 1452,-1452l0 -1585c0,-25 20,-45 45,-45l3204 0c25,0 45,20 45,45l0 3037 28 0c800,0 1452,-652 1452,-1452l0 -5919 -28 0c-799,0 -1452,652 -1452,1451l0 1583c0,24 -20,45 -45,45l-3204 0c-25,0 -45,-21 -45,-45l0 -1583c0,-799 -653,-1451 -1452,-1451l-35 0zm-19174 4326c107,472 431,1585 428,1612 -87,51 -122,110 -159,185 449,-115 751,-63 886,286 66,-40 131,-83 195,-128 -13,-68 -36,-136 -69,-202 149,-132 310,-159 454,-122 594,-583 962,-1394 962,-2291 0,-1774 -1438,-3212 -3212,-3212 -545,0 -1058,136 -1508,376 674,-599 1560,-962 2532,-962 2108,0 3816,1708 3816,3816 0,3760 -4986,5120 -7136,2576 216,-105 507,-50 634,140 87,-333 527,-647 895,-321 -108,219 -117,465 57,652 61,-634 393,-752 956,-608 -37,-75 -72,-134 -160,-185 -2,-27 321,-1140 429,-1612zm-373 -632c-99,108 -158,103 -208,272 -89,302 9,323 -144,324l-10 -983c81,-77 192,-233 280,-257l82 644zm713 0c99,108 157,103 207,272 89,302 -9,323 144,324l11 -983c-82,-77 -193,-233 -281,-257l-81 644zm-463 624l212 0 46 -215 -304 0 46 215zm106 -3698c-265,240 -349,1175 -352,1546 -5,481 42,1307 166,1763l186 0 186 0c124,-456 172,-1282 167,-1763 -4,-371 -88,-1306 -353,-1546zm0 1312c167,0 302,136 302,302 0,167 -135,303 -302,303 -167,0 -302,-136 -302,-303 0,-166 135,-302 302,-302zm15842 1202l-670 -161c-498,-114 -1228,-336 -1216,-968 0,-107 21,-212 64,-311 194,-445 742,-569 1181,-569 327,0 642,68 884,225 471,308 1037,323 1523,41l169 -98c-42,-97 -90,-191 -147,-281 -512,-817 -1501,-1115 -2419,-1115 -945,0 -1996,325 -2507,1181 -187,315 -276,666 -275,1032 1,1255 1102,1826 2179,2075l670 166c498,118 1228,347 1216,998 0,111 -21,220 -64,322 -194,459 -743,586 -1181,586 -327,0 -921,-195 -1163,-358 -471,-317 -1036,-333 -1523,-41l-168 100c375,1133 1804,1566 2844,1566 945,0 1996,-336 2506,-1218 188,-325 277,-687 276,-1064 -1,-1296 -1061,-1857 -2179,-2108zm-11183 4237l993 0c366,0 676,-225 789,-573l358 -1099c6,-19 23,-32 43,-32l2693 0c19,0 36,13 43,32l544 1672 431 0c277,0 515,-122 676,-348 160,-225 199,-491 108,-752l-1970 -5712c-118,-341 -424,-559 -785,-559l-785 0c-360,0 -667,218 -784,558l-2354 6813z"/>
  </g>
 </g>
</svg>
