<?xml version="1.0" encoding="UTF-8"?>
<!DOCTYPE svg PUBLIC "-//W3C//DTD SVG 1.1//EN" "http://www.w3.org/Graphics/SVG/1.1/DTD/svg11.dtd">
<!-- Creator: CorelDRAW 2020 (64-Bit) -->
<svg xmlns="http://www.w3.org/2000/svg" xml:space="preserve" width="3138px" height="1117px" version="1.1" style="shape-rendering:geometricPrecision; text-rendering:geometricPrecision; image-rendering:optimizeQuality; fill-rule:evenodd; clip-rule:evenodd"
viewBox="0 0 39612 14097"
 xmlns:xlink="http://www.w3.org/1999/xlink"
 xmlns:xodm="http://www.corel.com/coreldraw/odm/2003">
 <defs>
  <style type="text/css">
   <![CDATA[
    .fil0 {fill:#FDFFFA}
   ]]>
  </style>
 </defs>
 <g id="Слой_x0020_1">
  <metadata id="CorelCorpID_0Corel-Layer"/>
  <g id="_1613346129952">
   <path class="fil0" d="M14512 13743l0 -543 652 0c48,0 91,-17 126,-51 34,-35 52,-77 52,-126 0,-48 -18,-90 -52,-126 -35,-33 -78,-50 -126,-50l-652 0 0 -543 903 3 1 0c49,0 91,-17 125,-52 35,-34 52,-76 52,-125 0,-48 -17,-90 -51,-125 -35,-35 -77,-52 -126,-52l-1080 -3 -2 0c-49,0 -90,17 -124,53 -35,33 -52,75 -52,125l0 1792c0,49 17,90 52,124 34,36 75,53 124,53l1082 0c49,0 91,-17 125,-53 35,-34 52,-75 52,-124 0,-48 -17,-90 -52,-125 -34,-35 -76,-52 -125,-52l-904 0zm23756 -1436l276 0c197,0 365,71 505,211 139,140 209,308 209,504 0,197 -70,365 -209,505 -140,139 -309,210 -507,210l-274 4 0 -1434zm-174 1790l450 -6c295,0 547,-105 756,-314 208,-208 312,-460 312,-755 0,-294 -104,-546 -312,-755 -209,-209 -461,-312 -756,-312l-453 0c-49,0 -91,16 -125,50 -35,35 -52,77 -52,125l0 1790c0,49 17,91 52,126 35,34 77,51 125,51l3 0zm-2147 -1253l0 -543 442 0c87,0 161,27 222,80 63,52 93,116 93,192 0,73 -29,136 -88,189 -59,51 -131,79 -215,82l-454 0zm1109 -271c0,-172 -65,-319 -196,-441 -130,-121 -287,-182 -471,-182l-619 0c-48,0 -89,17 -124,53 -34,33 -51,74 -51,124l0 1782c0,47 17,89 51,123 35,34 76,51 124,51 49,0 90,-17 124,-51 35,-34 53,-76 53,-123l0 -714 303 0 396 803c32,66 84,99 157,99 27,0 53,-6 78,-18 44,-22 73,-56 88,-102 16,-46 13,-90 -8,-133l-339 -688c129,-45 232,-120 311,-225 81,-107 123,-226 123,-358zm-3427 717l287 -694 288 694 -575 0zm-519 793c22,9 45,14 67,14 79,0 133,-36 163,-109l143 -347 866 0 144 347c29,73 84,109 163,109 23,0 45,-5 67,-14 45,-18 77,-51 95,-95 19,-45 19,-90 0,-135l-189 -456c0,0 0,0 0,-2l-551 -1327 0 0c-1,-5 -4,-10 -7,-15 0,-1 -1,-4 -4,-7 -3,-4 -5,-7 -5,-8 0,-1 -2,-3 -6,-7l-4 -6c0,-1 -2,-4 -6,-8 -3,-3 -5,-5 -5,-6 -2,-1 -5,-3 -7,-6 -3,-3 -6,-4 -6,-4 -1,-1 -3,-3 -8,-6 -4,-3 -6,-5 -6,-5 -1,-1 -4,-3 -8,-6 -6,-3 -8,-3 -7,-3 -10,-5 -21,-10 -33,-13 2,0 0,-1 -5,-2 -5,-2 -9,-3 -11,-3 0,0 -3,0 -7,-1 -6,-1 -9,-2 -9,-2 0,0 -3,0 -9,0 -4,0 -7,0 -9,0 -1,0 -4,0 -8,0 -5,0 -8,0 -9,0 0,0 -2,1 -7,2 -5,1 -9,1 -11,1l-6 2c-6,2 -9,3 -10,3 -2,1 -6,2 -11,3 -6,3 -8,4 -6,3 3,-1 1,0 -4,3 -5,2 -9,4 -10,4 -1,0 -4,2 -10,5 -4,3 -6,4 -6,4 -1,1 -3,3 -7,6 -5,3 -7,5 -6,5 -1,0 -3,2 -8,5 -2,2 -4,4 -5,5 0,1 -2,4 -6,8 -3,3 -5,5 -5,6 -1,1 -3,2 -6,6 -2,4 -4,6 -4,7 -1,1 -3,4 -6,8 -2,4 -3,7 -3,7 -3,5 -6,10 -8,15l0 0 -550 1327c0,2 0,2 0,2l-190 456c-18,45 -18,90 0,135 19,44 51,77 96,95zm-1916 -1781c199,0 369,71 510,211 140,142 211,312 211,510 0,198 -71,368 -211,509 -141,141 -311,212 -510,212 -198,0 -367,-71 -508,-212 -141,-141 -212,-311 -212,-509 0,-198 71,-368 212,-510 141,-140 310,-211 508,-211zm0 1795c296,0 549,-106 759,-316 210,-209 314,-461 314,-758 0,-296 -104,-549 -314,-759 -210,-209 -463,-314 -759,-314 -295,0 -548,105 -758,314 -210,210 -316,463 -316,759 0,297 106,549 316,758 210,210 463,316 758,316zm-3014 -891l451 0c9,0 16,0 24,0 4,0 9,0 14,0 87,0 162,26 223,77 60,51 91,114 91,187 0,76 -31,140 -93,193 -62,54 -137,81 -224,81l-486 0 0 -538zm0 -896l451 -3c88,0 163,26 223,78 61,51 91,114 91,188 0,76 -30,142 -92,197 -63,56 -137,83 -222,83l-451 0 0 -543zm486 1787c184,0 342,-62 472,-184 131,-123 197,-270 197,-443 0,-186 -73,-340 -220,-462 122,-122 183,-267 183,-435 0,-173 -64,-319 -193,-439 -129,-120 -288,-179 -475,-179l-628 2c-48,2 -89,19 -124,53 -34,35 -51,76 -51,124l0 1786c0,49 17,90 53,124 33,36 74,53 124,53l662 0zm-2013 0c48,0 90,-17 126,-53 34,-34 51,-76 51,-125l0 -1787c0,-48 -17,-90 -51,-126 -36,-34 -78,-51 -126,-51 -49,0 -91,17 -126,51 -35,36 -52,78 -52,126l0 716 -921 0 0 -716c0,-48 -17,-90 -50,-126 -36,-34 -78,-51 -126,-51 -49,0 -91,17 -126,51 -35,36 -52,78 -52,126l0 1787c0,49 17,91 52,125 35,36 77,53 126,53 48,0 90,-17 126,-53 33,-34 50,-76 50,-125l0 -716 921 0 0 716c0,49 17,91 52,125 35,36 77,53 126,53zm-2364 -639c7,-151 -43,-283 -150,-396 -129,-137 -316,-208 -560,-212l-8 0c-145,-2 -249,-35 -311,-100 -39,-42 -57,-89 -55,-141 4,-85 39,-157 106,-215 68,-59 149,-88 242,-88 92,0 173,16 244,49 81,38 130,90 148,158 12,46 39,82 81,106 42,25 86,31 132,19 48,-13 83,-39 107,-81 25,-42 31,-86 19,-133 -42,-160 -140,-281 -294,-365 -129,-70 -274,-104 -437,-104 -188,0 -350,61 -484,185 -135,123 -206,275 -214,454 -7,151 43,283 150,396 129,137 316,207 560,211 1,0 2,0 3,0 -2,0 -1,0 3,0l2 0c145,2 249,36 311,102 38,40 57,87 55,139 -4,86 -40,157 -107,215 -67,59 -148,88 -241,88 -92,0 -174,-16 -245,-49 -80,-38 -129,-90 -147,-157 -12,-47 -39,-83 -81,-108 -42,-24 -86,-29 -133,-18 -46,13 -82,39 -107,81 -24,42 -30,86 -18,133 41,160 140,282 295,365 127,70 274,105 436,105 187,0 349,-62 484,-186 134,-123 206,-274 214,-453zm-3308 -168l288 -694 288 694 -576 0zm-518 793c22,9 44,14 67,14 79,0 133,-36 163,-109l143 -347 866 0 144 347c29,73 84,109 163,109 23,0 45,-5 67,-14 45,-18 77,-51 95,-95 19,-45 19,-90 0,-135l-189 -456c0,0 0,0 0,-2l-551 -1327 0 0c-2,-5 -4,-10 -7,-15 0,-1 -1,-4 -4,-7 -4,-4 -5,-7 -5,-8 0,-1 -2,-3 -6,-7l-4 -6c0,-1 -2,-4 -6,-8 -4,-3 -5,-5 -5,-6 -2,-1 -5,-3 -8,-6 -2,-3 -5,-4 -5,-4 -1,-1 -4,-3 -8,-6 -4,-3 -6,-5 -6,-5 -1,-1 -4,-3 -9,-6 -5,-3 -7,-3 -6,-3 -10,-5 -21,-10 -33,-13 2,0 0,-1 -5,-2 -6,-2 -9,-3 -11,-3 0,0 -3,0 -8,-1 -5,-1 -9,-2 -9,-2 0,0 -2,0 -9,0 -3,0 -6,0 -8,0 -2,0 -4,0 -8,0 -5,0 -8,0 -9,0 0,0 -2,1 -8,2 -4,1 -8,1 -10,1l-6 2c-6,2 -9,3 -10,3 -3,1 -6,2 -11,3 -6,3 -8,4 -6,3 2,-1 1,0 -4,3 -5,2 -9,4 -11,4 -1,0 -3,2 -9,5 -4,3 -6,4 -6,4 -1,1 -3,3 -7,6 -5,3 -7,5 -6,5 -1,0 -4,2 -8,5 -2,2 -4,4 -6,5 0,1 -2,4 -5,8 -4,3 -5,5 -5,6 -1,1 -3,2 -6,6 -3,4 -5,6 -5,7 -1,1 -2,4 -5,8 -3,4 -4,7 -4,7 -2,5 -5,10 -7,15l0 0 -550 1327c0,2 0,2 0,2l-190 456c-18,45 -18,90 0,135 19,44 51,77 96,95zm-2185 -1776l276 0c197,0 365,71 505,211 139,140 209,308 209,504 0,197 -70,365 -209,505 -140,139 -309,210 -507,210l-274 4 0 -1434zm-174 1790l450 -6c295,0 547,-105 756,-314 208,-208 312,-460 312,-755 0,-294 -104,-546 -312,-755 -209,-209 -461,-312 -756,-312l-453 0c-49,0 -91,16 -125,50 -35,35 -52,77 -52,125l0 1790c0,49 17,91 52,126 35,34 77,51 125,51l3 0zm-5573 0c276,0 516,-93 720,-279 37,-32 56,-73 58,-122 1,-49 -14,-91 -47,-127 -33,-37 -74,-56 -123,-58 -48,-2 -91,13 -126,46 -136,124 -297,186 -482,186 -196,0 -365,-70 -504,-209 -139,-141 -209,-308 -209,-505 0,-197 70,-365 209,-505 139,-139 308,-209 504,-209 162,0 307,49 435,148 39,29 83,40 132,34 47,-6 87,-28 116,-67 30,-39 42,-83 36,-131 -7,-49 -29,-87 -67,-117 -192,-148 -410,-222 -652,-222 -294,0 -546,105 -755,314 -208,208 -312,460 -312,755 0,294 104,546 312,756 209,208 461,312 755,312zm-2240 -67c3,3 6,8 10,11 0,1 0,2 0,2 1,1 2,1 2,1 4,4 8,8 13,12 1,2 3,3 6,5 4,3 8,5 11,7 0,1 3,3 6,5 2,1 6,2 10,4 2,3 4,4 6,4 3,1 7,3 12,4 3,2 5,3 6,3 3,1 7,2 11,3 6,1 8,2 7,1 4,1 9,2 14,3 5,1 6,1 4,0 7,1 14,2 19,2l0 0c8,0 17,-1 26,-2 2,-1 4,-1 4,-1 9,-2 17,-3 26,-6 -2,1 -1,0 3,-2 8,-3 16,-6 23,-10 0,0 0,0 0,0 0,0 1,0 2,0 7,-4 14,-9 22,-15 0,0 0,0 0,0 1,-1 1,-1 1,-1 5,-4 5,-4 2,-2 2,-1 5,-3 8,-6 4,-3 6,-5 6,-6 1,0 3,-2 5,-6 4,-3 6,-5 7,-6 0,0 1,-2 4,-6 3,-4 6,-7 7,-9l3 -4c3,-5 4,-7 5,-10 0,0 2,-2 5,-7 2,-5 3,-8 3,-8 1,-1 2,-4 3,-9 2,-3 3,-6 3,-7 0,-1 1,-4 2,-9 1,-5 2,-7 2,-7 1,-2 2,-5 2,-9 1,-4 1,-8 1,-10 0,0 0,-3 0,-7 1,-3 2,-7 2,-9l0 -1794c0,-49 -18,-90 -53,-124 -34,-35 -75,-52 -124,-52 -48,0 -90,17 -125,52 -34,34 -51,75 -51,124l0 1277 -1075 -1384c-23,-30 -52,-51 -89,-62 -36,-11 -72,-10 -107,3 -36,13 -65,34 -87,64 -22,30 -33,64 -33,102l0 1791c0,49 18,90 53,124 33,36 75,53 124,53 49,0 90,-17 124,-53 35,-34 52,-75 52,-124l0 -1275 1075 1383c0,1 0,2 0,2 0,0 1,0 2,0zm-3400 -740l287 -694 288 694 -575 0zm-519 793c22,9 44,14 67,14 79,0 133,-36 163,-109l143 -347 866 0 144 347c29,73 84,109 163,109 23,0 45,-5 67,-14 45,-18 77,-51 95,-95 19,-45 19,-90 0,-135l-189 -456c0,0 0,0 0,-2l-551 -1327 0 0c-2,-5 -4,-10 -7,-15 0,-1 -1,-4 -4,-7 -3,-4 -5,-7 -5,-8 0,-1 -2,-3 -6,-7l-4 -6c0,-1 -2,-4 -6,-8 -3,-3 -5,-5 -5,-6 -2,-1 -5,-3 -7,-6 -3,-3 -6,-4 -6,-4 -1,-1 -3,-3 -8,-6 -4,-3 -6,-5 -6,-5 -1,-1 -4,-3 -9,-6 -5,-3 -7,-3 -6,-3 -10,-5 -21,-10 -33,-13 2,0 0,-1 -5,-2 -6,-2 -9,-3 -11,-3 0,0 -3,0 -7,-1 -6,-1 -10,-2 -10,-2 0,0 -2,0 -9,0 -3,0 -6,0 -8,0 -2,0 -4,0 -8,0 -5,0 -8,0 -9,0 0,0 -2,1 -7,2 -5,1 -9,1 -11,1l-6 2c-6,2 -9,3 -10,3 -2,1 -6,2 -11,3 -6,3 -8,4 -6,3 3,-1 1,0 -4,3 -5,2 -9,4 -11,4 -1,0 -3,2 -9,5 -4,3 -6,4 -6,4 -1,1 -3,3 -7,6 -5,3 -7,5 -6,5 -1,0 -3,2 -8,5 -2,2 -4,4 -5,5 0,1 -2,4 -6,8 -4,3 -5,5 -5,6 -1,1 -3,2 -6,6 -3,4 -4,6 -4,7 -1,1 -3,4 -6,8 -3,4 -4,7 -4,7 -2,5 -5,10 -7,15l0 0 -550 1327c0,2 0,2 0,2l-190 456c-18,45 -18,90 0,135 19,44 51,77 96,95zm-1276 -53c3,3 6,8 10,11 0,1 0,2 0,2 1,1 2,1 2,1 4,4 8,8 13,12 1,2 3,3 6,5 4,3 8,5 11,7 1,1 3,3 6,5 2,1 6,2 10,4 2,3 4,4 6,4 3,1 7,3 12,4 3,2 5,3 6,3 3,1 7,2 12,3 5,1 7,2 6,1 4,1 9,2 15,3 4,1 5,1 3,0 7,1 14,2 19,2l0 0c9,0 17,-1 26,-2 3,-1 4,-1 4,-1 9,-2 18,-3 26,-6 -2,1 -1,0 3,-2 8,-3 16,-6 23,-10 0,0 0,0 0,0 0,0 1,0 2,0 7,-4 15,-9 22,-15 0,0 0,0 0,0 1,-1 2,-1 2,-1 4,-4 4,-4 2,-2 1,-1 4,-3 7,-6 4,-3 6,-5 6,-6 1,0 3,-2 6,-6 3,-3 5,-5 6,-6 0,0 1,-2 5,-6 2,-4 5,-7 6,-9l4 -4c2,-5 3,-7 4,-10 0,0 2,-2 5,-7 2,-5 3,-8 3,-8 1,-1 2,-4 3,-9 2,-3 3,-6 3,-7 1,-1 2,-4 3,-9 0,-5 1,-7 1,-7 1,-2 2,-5 2,-9 1,-4 1,-8 1,-10 0,0 0,-3 0,-7 1,-3 2,-7 2,-9l0 -1794c0,-49 -17,-90 -53,-124 -34,-35 -75,-52 -124,-52 -48,0 -90,17 -125,52 -34,34 -51,75 -51,124l0 1277 -1075 -1384c-23,-30 -52,-51 -88,-62 -37,-11 -73,-10 -108,3 -36,13 -65,34 -87,64 -22,30 -33,64 -33,102l0 1791c0,49 18,90 53,124 34,36 75,53 124,53 49,0 90,-17 124,-53 35,-34 52,-75 52,-124l0 -1275 1075 1383c0,1 0,2 0,2 0,0 1,0 2,0zm-2600 67c48,0 90,-17 124,-53 34,-34 52,-75 52,-124l0 -1783c0,-50 -18,-90 -52,-124 -34,-35 -76,-53 -124,-53 -49,0 -91,18 -124,53 -35,34 -53,74 -53,124l0 1783c0,49 18,90 53,124 33,36 75,53 124,53zm-2318 -2147l-1 0c-49,0 -91,17 -124,53 -35,33 -53,75 -53,125l0 1792c0,49 18,90 53,124 33,36 75,53 124,53 48,0 90,-17 126,-53 34,-34 51,-75 51,-124l0 -720 652 0c49,0 91,-17 126,-51 35,-35 52,-77 52,-126 0,-48 -17,-90 -52,-126 -35,-33 -77,-50 -126,-50l-652 0 0 -543 903 3 2 0c49,0 90,-17 124,-52 35,-34 52,-76 52,-125 0,-48 -17,-90 -50,-125 -35,-35 -77,-52 -126,-52l-1081 -3z"/>
   <path class="fil0" d="M15363 2449l81 0c28,0 52,18 61,44l1288 3956c7,20 3,40 -9,57 -12,17 -30,27 -51,27l-2658 0c-22,0 -39,-10 -52,-27 -12,-17 -15,-37 -9,-57l1289 -3956c8,-26 32,-44 60,-44zm15468 -2265l0 10338 49 0c1122,0 2036,-914 2036,-2036l0 -2223c0,-35 29,-64 64,-64l4493 0c35,0 64,29 64,64l0 4259 39 0c1121,0 2036,-914 2036,-2036l0 -8302 -39 0c-1122,0 -2036,915 -2036,2037l0 2218c0,35 -29,64 -64,64l-4493 0c-35,0 -64,-29 -64,-64l0 -2218c0,-1122 -914,-2037 -2036,-2037l-49 0zm-26889 6068c150,662 604,2223 601,2260 -123,72 -172,155 -224,261 630,-162 1054,-89 1243,400 93,-56 184,-117 273,-180 -18,-95 -50,-190 -96,-282 209,-185 434,-223 636,-172 833,-817 1349,-1955 1349,-3213 0,-2488 -2017,-4504 -4504,-4504 -764,0 -1484,191 -2115,527 945,-839 2188,-1349 3551,-1349 2956,0 5351,2396 5351,5351 0,5273 -6992,7181 -10007,3613 303,-147 711,-70 889,196 123,-466 740,-906 1255,-449 -151,307 -164,651 80,913 86,-889 552,-1053 1340,-851 -51,-106 -101,-189 -223,-261 -3,-37 450,-1598 601,-2260zm-523 -886c-140,151 -222,145 -292,381 -125,424 13,452 -202,454l-14 -1379c114,-108 269,-326 394,-359l114 903zm999 0c139,151 221,145 291,381 126,424 -12,452 203,454l14 -1379c-114,-108 -270,-326 -394,-359l-114 903zm-649 875l298 0 64 -302 -425 0 63 302zm149 -5186c-371,336 -489,1648 -494,2167 -7,675 60,1833 233,2472l261 0 262 0c173,-639 240,-1797 233,-2472 -5,-519 -123,-1831 -495,-2167zm0 1840c235,0 424,190 424,424 0,234 -189,424 -424,424 -234,0 -424,-190 -424,-424 0,-234 190,-424 424,-424zm22217 1685l-940 -225c-698,-161 -1722,-472 -1705,-1357 0,-151 29,-299 89,-437 272,-625 1042,-798 1656,-798 459,0 902,95 1241,316 660,432 1453,453 2135,57l237 -137c-58,-137 -126,-269 -205,-394 -719,-1147 -2106,-1564 -3393,-1564 -1326,0 -2799,456 -3515,1656 -264,441 -388,934 -387,1447 2,1760 1546,2561 3056,2910l940 233c698,165 1722,486 1704,1400 0,155 -28,307 -88,450 -273,645 -1042,823 -1657,823 -458,0 -1292,-273 -1631,-502 -660,-445 -1453,-467 -2135,-58l-237 141c527,1588 2531,2196 3989,2196 1326,0 2799,-471 3515,-1709 263,-455 388,-963 387,-1492 -2,-1817 -1488,-2604 -3056,-2956zm-15683 5942l1393 0c512,0 948,-316 1106,-803l502 -1542c8,-27 32,-44 60,-44l3776 0c28,0 52,17 61,44l763 2345 605 0c388,0 722,-172 947,-488 226,-316 279,-688 153,-1055l-2764 -8011c-165,-477 -595,-784 -1100,-784l-1101 0c-505,0 -935,307 -1100,784l-3301 9554z"/>
  </g>
 </g>
</svg>
