<?xml version="1.0" encoding="UTF-8"?>
<!DOCTYPE svg PUBLIC "-//W3C//DTD SVG 1.1//EN" "http://www.w3.org/Graphics/SVG/1.1/DTD/svg11.dtd">
<!-- Creator: CorelDRAW 2020 (64-Bit) -->
<svg xmlns="http://www.w3.org/2000/svg" xml:space="preserve" width="355px" height="355px" version="1.1" style="shape-rendering:geometricPrecision; text-rendering:geometricPrecision; image-rendering:optimizeQuality; fill-rule:evenodd; clip-rule:evenodd"
viewBox="0 0 502 502"
 xmlns:xlink="http://www.w3.org/1999/xlink"
 xmlns:xodm="http://www.corel.com/coreldraw/odm/2003">
 <defs>
  <style type="text/css">
   <![CDATA[
    .fil0 {fill:#FEFEFE;fill-rule:nonzero}
   ]]>
  </style>
 </defs>
 <g id="Слой_x0020_1">
  <metadata id="CorelCorpID_0Corel-Layer"/>
  <path class="fil0" d="M232 19c0,-10 8,-19 19,-19 10,0 19,9 19,19l0 23c0,11 -9,19 -19,19 -11,0 -19,-8 -19,-19l0 -23zm-130 179c3,-10 14,-15 24,-11 10,3 15,14 11,24 -2,6 -3,13 -5,19 -1,7 -1,14 -1,21 0,33 13,63 35,85 22,22 52,35 85,35 33,0 63,-13 85,-35 22,-22 35,-52 35,-85 0,-33 -13,-63 -35,-85 -22,-22 -52,-35 -85,-35 -7,0 -14,0 -21,1 -6,2 -13,3 -19,5 -10,4 -21,-1 -24,-11 -4,-10 1,-21 11,-24 9,-3 17,-5 26,-7 9,-1 18,-2 27,-2 43,0 83,18 112,46 28,29 46,68 46,112 0,43 -18,83 -46,112 -29,28 -69,46 -112,46 -44,0 -83,-18 -112,-46 -29,-29 -46,-69 -46,-112 0,-9 1,-18 2,-27 2,-9 4,-17 7,-26zm7 -115c8,7 8,19 0,26 -7,8 -19,8 -26,0l-10 -9c-7,-7 -7,-19 0,-26 8,-8 20,-8 27,0l9 9zm319 318c8,8 8,20 0,27 -7,8 -19,8 -27,0l-9 -9c-7,-7 -7,-19 0,-27 8,-7 20,-7 27,0l9 9zm-345 -9c7,-7 19,-7 26,0 8,8 8,20 0,27l-9 9c-7,8 -19,8 -26,0 -8,-7 -8,-19 -1,-26l10 -10zm318 -318c8,-8 20,-8 27,0 8,7 8,19 0,26l-9 9c-7,8 -19,8 -27,0 -7,-7 -7,-19 0,-26l9 -9zm-359 158c11,0 19,8 19,19 0,10 -8,19 -19,19l-23 0c-11,0 -19,-9 -19,-19 0,-11 8,-19 19,-19l23 0zm441 0c10,0 19,8 19,19 0,10 -9,19 -19,19l-23 0c-11,0 -19,-9 -19,-19 0,-11 8,-19 19,-19l23 0zm-251 228c0,-11 8,-19 19,-19 10,0 19,8 19,19l0 23c0,10 -9,19 -19,19 -11,0 -19,-9 -19,-19l0 -23z"/>
 </g>
</svg>
