<?xml version="1.0" encoding="UTF-8"?>
<!DOCTYPE svg PUBLIC "-//W3C//DTD SVG 1.1//EN" "http://www.w3.org/Graphics/SVG/1.1/DTD/svg11.dtd">
<!-- Creator: CorelDRAW 2020 (64-Bit) -->
<svg xmlns="http://www.w3.org/2000/svg" xml:space="preserve" width="503px" height="503px" version="1.1" style="shape-rendering:geometricPrecision; text-rendering:geometricPrecision; image-rendering:optimizeQuality; fill-rule:evenodd; clip-rule:evenodd"
viewBox="0 0 1053 1053"
 xmlns:xlink="http://www.w3.org/1999/xlink"
 xmlns:xodm="http://www.corel.com/coreldraw/odm/2003">
 <defs>
  <style type="text/css">
   <![CDATA[
    .fil0 {fill:#FEFEFE}
   ]]>
  </style>
 </defs>
 <g id="Слой_x0020_1">
  <metadata id="CorelCorpID_0Corel-Layer"/>
  <path class="fil0" d="M597 527l131 -132c19,-19 19,-50 0,-70 -19,-19 -51,-19 -70,0l-131 132 -132 -132c-19,-19 -50,-19 -70,0 -19,20 -19,51 0,70l132 132 -132 131c-19,19 -19,51 0,70 10,9 22,15 35,15 13,0 26,-6 35,-15l132 -131 131 131c9,9 22,15 35,15 13,0 26,-6 35,-15 19,-19 19,-51 0,-70l-131 -131zm-70 526c-291,0 -527,-236 -527,-526 0,-291 236,-527 527,-527 290,0 526,236 526,527 0,290 -236,526 -526,526zm0 -963c-241,0 -437,196 -437,437 0,240 196,436 437,436 240,0 436,-196 436,-436 0,-241 -196,-437 -436,-437z"/>
 </g>
</svg>
