<?xml version="1.0" encoding="UTF-8"?>
<!DOCTYPE svg PUBLIC "-//W3C//DTD SVG 1.1//EN" "http://www.w3.org/Graphics/SVG/1.1/DTD/svg11.dtd">
<!-- Creator: CorelDRAW 2020 (64-Bit) -->
<svg xmlns="http://www.w3.org/2000/svg" xml:space="preserve" width="377px" height="408px" version="1.1" style="shape-rendering:geometricPrecision; text-rendering:geometricPrecision; image-rendering:optimizeQuality; fill-rule:evenodd; clip-rule:evenodd"
viewBox="0 0 562 608"
 xmlns:xlink="http://www.w3.org/1999/xlink"
 xmlns:xodm="http://www.corel.com/coreldraw/odm/2003">
 <defs>
  <style type="text/css">
   <![CDATA[
    .fil0 {fill:#FEFEFE}
   ]]>
  </style>
 </defs>
 <g id="Слой_x0020_1">
  <metadata id="CorelCorpID_0Corel-Layer"/>
  <path class="fil0" d="M52 138l-13 0c-4,0 -9,0 -13,0 -15,0 -25,-12 -26,-26 -1,-14 12,-25 26,-25 0,0 0,0 0,0 7,-1 14,0 20,0 14,0 28,0 42,0l32 0 0 -22c0,-12 3,-25 10,-36 10,-14 25,-25 42,-28 9,-1 17,-1 26,-1 13,0 26,0 39,0 33,0 66,0 100,0 11,0 22,0 33,0 15,0 29,2 42,10 14,9 25,24 28,41 2,7 2,14 2,22l0 14 44 0c12,0 24,0 37,0 4,0 9,0 13,0 14,0 25,11 26,25 1,14 -12,26 -26,26 0,0 0,0 0,0 -7,0 -14,0 -21,0l-5 0 0 25c0,24 0,48 0,72 0,28 0,57 0,85 0,29 0,58 0,86 0,24 0,47 0,71 0,14 0,28 0,42 0,3 0,6 0,9 -2,28 -16,53 -40,68 -13,8 -29,12 -45,12 -5,0 -10,0 -15,0 -21,0 -43,0 -64,0 -29,0 -57,0 -86,0 -26,0 -53,0 -79,0 -15,0 -29,0 -43,0 -16,0 -31,-4 -44,-11 -12,-7 -21,-17 -29,-28 -7,-11 -11,-24 -12,-38 -1,-9 -1,-18 -1,-27 0,-20 0,-39 0,-58 0,-27 0,-54 0,-80 0,-29 0,-59 0,-88 0,-27 0,-54 0,-80 0,-20 0,-40 0,-60l0 0zm57 404c0,0 0,1 0,1 1,0 1,1 1,2 1,0 2,1 3,2 1,1 2,2 3,3 0,0 1,0 1,1l0 0 0 0c2,1 4,2 6,3 3,1 5,2 8,2 1,0 3,0 5,0 11,1 22,0 33,0 25,0 50,0 74,0 29,0 58,0 86,0 24,0 47,0 71,0 10,0 21,1 31,0 3,0 5,-1 8,-2 2,-1 4,-2 6,-3 0,0 0,0 0,0 1,-1 1,-1 2,-2 1,0 2,-1 3,-2 1,-1 2,-2 3,-3 0,-1 0,-1 0,-1l0 0c1,-2 3,-4 4,-6 0,-3 1,-5 2,-8 0,-2 0,-3 0,-5 0,-16 0,-31 0,-47 0,-34 0,-68 0,-102 0,-40 0,-79 0,-119 0,-33 0,-66 0,-99l0 -19 -41 0c-1,0 -1,0 -2,0 -1,0 -2,0 -3,0l-67 0c-25,0 -49,0 -74,0 -25,0 -49,0 -74,0l-52 0c-1,0 -1,0 -2,0l-41 0c0,9 0,19 0,29 0,34 0,68 0,103 0,40 0,79 0,119 0,32 0,65 0,97 0,10 0,19 0,29 0,5 0,9 0,14 1,3 2,5 3,8 0,2 1,3 3,5zm310 -39c0,14 -12,25 -26,26 -14,0 -25,-12 -25,-26 0,0 0,0 0,0 -1,-13 0,-25 0,-38 0,-26 0,-51 0,-77 0,-30 0,-60 0,-89 0,-25 0,-50 0,-74 0,-11 0,-21 0,-31 0,-14 11,-25 25,-26 14,0 26,12 26,26 0,0 0,0 0,0 0,13 0,26 0,38 0,26 0,52 0,77 0,30 0,60 0,89 0,25 0,50 0,74 0,11 0,21 0,31zm-113 0c0,14 -11,25 -25,26 -14,0 -26,-12 -26,-26 0,0 0,0 0,0 0,-13 0,-25 0,-38 0,-26 0,-51 0,-77 0,-30 0,-60 0,-89 0,-25 0,-50 0,-74 0,-11 0,-21 0,-31 0,-14 12,-25 26,-26 14,0 25,12 25,26 0,0 0,0 0,0 1,13 0,26 0,38 0,26 0,52 0,77 0,30 0,60 0,89 0,25 0,50 0,74 0,11 0,21 0,31zm-163 -309c0,-14 12,-25 26,-26 13,0 25,12 25,26 0,0 0,0 0,0 1,13 0,26 0,38 0,26 0,52 0,77 0,30 0,60 0,89 0,25 0,50 0,74 0,11 0,21 0,31 0,14 -11,25 -25,26 -14,0 -26,-12 -26,-26 0,0 0,0 0,0 0,-13 0,-25 0,-38 0,-26 0,-51 0,-77 0,-30 0,-59 0,-89 0,-25 0,-49 0,-74 0,-10 0,-21 0,-31zm28 -132c0,8 0,16 0,24l0 1 45 0c25,0 49,0 74,0 25,0 49,0 73,0l28 0 0 -1c0,-8 0,-16 0,-24 -1,-1 -1,-2 -1,-3 -1,-1 -1,-2 -2,-3 0,0 -1,-1 -1,-1 -1,-1 -1,-1 -2,-2 0,0 -1,0 -2,-1 -1,0 -2,-1 -3,-1 -8,0 -17,0 -25,0 -35,0 -71,0 -106,0 -16,0 -31,0 -47,0 -7,0 -13,0 -20,0 -1,0 -2,1 -3,1 -1,1 -2,1 -3,2 0,0 -1,0 -1,1 -1,0 -1,1 -2,1 0,1 0,2 -1,3 0,1 -1,2 -1,3z"/>
 </g>
</svg>
