<?xml version="1.0" encoding="UTF-8"?>
<!DOCTYPE svg PUBLIC "-//W3C//DTD SVG 1.1//EN" "http://www.w3.org/Graphics/SVG/1.1/DTD/svg11.dtd">
<!-- Creator: CorelDRAW 2020 (64-Bit) -->
<svg xmlns="http://www.w3.org/2000/svg" xml:space="preserve" width="230px" height="152px" version="1.1" style="shape-rendering:geometricPrecision; text-rendering:geometricPrecision; image-rendering:optimizeQuality; fill-rule:evenodd; clip-rule:evenodd"
viewBox="0 0 184 121"
 xmlns:xlink="http://www.w3.org/1999/xlink"
 xmlns:xodm="http://www.corel.com/coreldraw/odm/2003">
 <defs>
  <style type="text/css">
   <![CDATA[
    .fil0 {fill:#EBEDEF;fill-rule:nonzero}
   ]]>
  </style>
 </defs>
 <g id="Слой_x0020_1">
  <metadata id="CorelCorpID_0Corel-Layer"/>
  <path class="fil0" d="M173 19c0,-1 0,-2 0,-3 -1,-1 -2,-2 -2,-3l0 0c-1,-1 -2,-1 -3,-2 -1,0 -2,-1 -3,-1l-146 0c-1,0 -2,1 -3,1 -1,1 -2,1 -3,2l0 0c-1,1 -1,2 -2,3 0,1 -1,2 -1,3l0 83c0,1 1,3 1,4l0 0c1,1 1,2 2,2l0 0c1,1 2,2 3,2l0 0 0 0c1,1 2,1 3,1l146 0c1,0 2,0 3,-1 0,0 0,0 0,0 1,0 2,-1 3,-2l0 0c0,0 1,-1 2,-2 0,-1 0,-1 0,-1 0,-1 0,-2 0,-3l0 -83zm-76 66c0,3 -2,5 -5,5 -3,0 -5,-2 -5,-5l0 -3c-1,0 -1,0 -1,0 -2,-1 -4,-3 -5,-4 -2,-3 -2,-6 1,-8 2,-1 5,-1 7,1 0,1 1,1 1,1 1,1 1,1 2,1l0 0 0 0c1,0 2,-1 2,-1 1,-1 1,-2 1,-3 0,-1 0,-2 -1,-2 0,-1 -1,-1 -2,-1 -4,0 -7,-2 -10,-4 -3,-3 -4,-6 -4,-10 0,-6 4,-11 9,-13l0 -3c0,-2 2,-5 5,-5 3,0 5,3 5,5l0 3c0,0 1,0 1,1 2,1 4,2 5,4 2,2 1,5 -1,7 -2,2 -6,1 -7,-1 -1,-1 -1,-1 -2,-1 0,0 -1,0 -1,0l0 0 0 0c-2,0 -4,1 -4,3 0,1 1,2 1,2 1,1 2,1 3,1 4,0 7,2 10,4 2,3 4,6 4,10 0,4 -2,8 -4,10 -2,1 -3,2 -5,3l0 3zm62 0c0,-3 2,-5 5,-5 3,0 5,2 5,5l0 10c0,2 0,3 -1,5 0,1 -1,3 -2,4 0,0 -1,0 -1,0 -1,1 -2,2 -3,2 -2,1 -3,1 -5,1l-11 0c-3,0 -5,-2 -5,-5 0,-3 2,-5 5,-5l11 0c0,0 1,0 1,0 0,0 0,0 0,0 0,0 0,0 0,-1 0,0 1,0 1,0 0,0 0,0 0,-1l0 -10zm-121 12c3,0 5,2 5,5 0,3 -2,5 -5,5l-11 0c-2,0 -4,0 -5,-1 -2,0 -3,-1 -4,-2l0 0 0 0c-1,-1 -2,-3 -3,-4 0,-2 -1,-3 -1,-5l0 -10c0,-3 3,-5 6,-5 3,0 5,2 5,5l0 10c0,1 0,1 0,1 0,0 0,0 0,0l0 1c1,0 1,0 1,0 0,0 0,0 1,0l11 0zm108 -73c-3,0 -5,-2 -5,-5 0,-3 2,-5 5,-5l11 0c2,0 3,0 5,1 1,0 2,1 4,2l0 0 0 0c1,2 2,3 2,4 1,2 1,3 1,5l0 10c0,3 -2,6 -5,6 -3,0 -5,-3 -5,-6l0 -10c0,0 0,0 0,-1 0,0 -1,0 -1,0l0 0c0,0 0,-1 0,-1 0,0 -1,0 -1,0l-11 0zm-121 12c0,3 -2,6 -5,6 -3,0 -6,-3 -6,-6l0 -10c0,-2 1,-3 1,-5 1,-1 2,-2 3,-4 0,0 0,0 0,0 1,-1 3,-2 4,-2 1,-1 3,-1 5,-1l11 0c3,0 5,2 5,5 0,3 -2,5 -5,5l-11 0c-1,0 -1,0 -1,0 0,0 0,1 -1,1 0,0 0,0 0,0 0,0 0,0 0,0 0,1 0,1 0,1l0 10zm157 -24c1,2 2,5 2,7l0 83c0,3 -1,5 -2,7 0,0 0,0 0,1 -1,2 -2,4 -4,6l0 0c-2,1 -4,3 -6,4 0,0 0,0 0,0 -2,1 -5,1 -7,1l-146 0c-2,0 -5,0 -7,-1l0 0c-3,-1 -5,-3 -6,-4l0 0c-2,-2 -4,-4 -5,-6l0 0 0 -1c0,-2 -1,-4 -1,-7l0 -83c0,-2 1,-5 1,-7 1,-2 3,-5 5,-6l0 0c1,-2 4,-4 6,-5 2,0 5,-1 7,-1l146 0c2,0 5,1 7,1 2,1 4,3 6,5l0 0c2,1 3,4 4,6z"/>
 </g>
</svg>
