<?xml version="1.0" encoding="UTF-8"?>
<!DOCTYPE svg PUBLIC "-//W3C//DTD SVG 1.1//EN" "http://www.w3.org/Graphics/SVG/1.1/DTD/svg11.dtd">
<!-- Creator: CorelDRAW 2020 (64-Bit) -->
<svg xmlns="http://www.w3.org/2000/svg" xml:space="preserve" width="149px" height="124px" version="1.1" style="shape-rendering:geometricPrecision; text-rendering:geometricPrecision; image-rendering:optimizeQuality; fill-rule:evenodd; clip-rule:evenodd"
viewBox="0 0 55 46"
 xmlns:xlink="http://www.w3.org/1999/xlink"
 xmlns:xodm="http://www.corel.com/coreldraw/odm/2003">
 <defs>
  <style type="text/css">
   <![CDATA[
    .fil0 {fill:#EBEDEF}
   ]]>
  </style>
 </defs>
 <g id="Слой_x0020_1">
  <metadata id="CorelCorpID_0Corel-Layer"/>
  <path class="fil0" d="M51 46c2,0 4,-2 4,-5l0 -27c0,-3 -2,-5 -4,-5l-4 0c0,2 -1,3 -2,4l4 0c1,0 2,1 2,2l0 13 -47 0 0 -13c0,-1 1,-2 2,-2l4 0c-1,-1 -2,-2 -2,-3l0 0 0 -1 -4 0c-2,0 -4,2 -4,5l0 27c0,3 2,5 4,5l47 0zm-47 -12l47 0 0 6c0,1 -1,2 -2,2l-43 0c-1,0 -2,-1 -2,-2l0 -6zm15 -11l6 0c0,-1 0,-1 0,-2 0,-1 0,-1 1,-2 0,-1 0,-1 0,-2 1,-1 1,-1 1,-2l0 -1 1 1c0,1 0,2 1,2 0,1 0,3 1,4 0,0 0,1 0,2l6 0c0,-2 -1,-4 -2,-5 -1,-2 -1,-3 -2,-4l0 -1 0 0c1,0 1,0 2,0 1,0 2,0 3,0 2,0 4,0 5,-2 1,-1 1,-3 1,-4 0,-1 0,-2 0,-2 0,-2 -1,-3 -2,-4 -1,-1 -3,-1 -4,-1 -4,0 -7,2 -9,5l-1 0 0 0c-2,-3 -5,-5 -9,-5 -1,0 -3,0 -4,1 -1,1 -2,2 -2,4 0,0 0,1 0,2 0,1 0,3 1,4 1,2 3,2 5,2 1,0 2,0 3,0 1,0 1,0 2,0l0 0 0 1c-1,2 -2,4 -3,5 0,1 -1,3 -1,4zm0 -19c0,0 1,0 1,0 1,1 2,1 2,2 1,0 1,1 1,1 1,1 1,1 2,2l0 0 0 0c-1,0 -2,0 -3,0 -1,0 -1,0 -2,0 0,0 0,0 -1,0 0,0 -1,0 -2,0 0,-1 0,-1 0,-2 -1,0 0,-1 0,-2 0,0 1,-1 2,-1zm17 0c1,0 1,0 2,1 0,0 0,0 0,0 0,1 0,2 0,2 0,1 0,1 0,2 -1,0 -2,0 -2,0 -1,0 -1,0 -1,0 -1,0 -1,0 -2,0 -1,0 -2,0 -3,0l0 0 0 0c1,-1 1,-1 2,-2 0,0 0,-1 1,-1 0,-1 1,-1 2,-2 0,0 0,0 1,0z"/>
 </g>
</svg>
