<?xml version="1.0" encoding="UTF-8"?>
<!DOCTYPE svg PUBLIC "-//W3C//DTD SVG 1.1//EN" "http://www.w3.org/Graphics/SVG/1.1/DTD/svg11.dtd">
<!-- Creator: CorelDRAW 2020 (64-Bit) -->
<svg xmlns="http://www.w3.org/2000/svg" xml:space="preserve" width="267px" height="267px" version="1.1" style="shape-rendering:geometricPrecision; text-rendering:geometricPrecision; image-rendering:optimizeQuality; fill-rule:evenodd; clip-rule:evenodd"
viewBox="0 0 130 130"
 xmlns:xlink="http://www.w3.org/1999/xlink"
 xmlns:xodm="http://www.corel.com/coreldraw/odm/2003">
 <defs>
  <style type="text/css">
   <![CDATA[
    .fil0 {fill:#FEFEFE;fill-rule:nonzero}
   ]]>
  </style>
 </defs>
 <g id="Слой_x0020_1">
  <metadata id="CorelCorpID_0Corel-Layer"/>
  <path class="fil0" d="M47 71c-13,-2 -16,-15 -17,-16 0,-3 -3,-4 -6,-4 -3,1 -4,4 -4,7 1,0 5,20 26,23 0,1 0,1 1,1 2,0 4,-2 5,-5 0,-3 -2,-5 -5,-6zm-15 -30c0,-3 -3,-5 -6,-5 -2,0 -5,2 -5,5 0,3 3,5 5,5 3,0 6,-2 6,-5zm95 64l-19 -19c-2,-2 -3,-2 -4,-3 -1,0 -1,0 -2,0 -2,0 -4,1 -5,3l-6 -6c15,-20 13,-47 -5,-65 -9,-10 -22,-15 -36,-15 -13,0 -26,5 -35,15 -10,9 -15,22 -15,35 0,14 5,27 15,36 9,10 22,15 35,15 11,0 22,-4 30,-10l6 6 0 0c-2,2 -3,4 -3,7 1,1 1,3 3,4l19 19c2,2 4,3 6,3 2,0 5,-1 6,-3l10 -10c4,-3 4,-8 0,-12zm-52 -30c-7,7 -15,10 -25,10 -9,0 -18,-3 -24,-10 -7,-7 -10,-15 -10,-25 0,-9 3,-18 10,-24 6,-7 15,-10 24,-10 10,0 18,3 25,10 14,13 14,35 0,49z"/>
 </g>
</svg>
