<?xml version="1.0" encoding="UTF-8"?>
<!DOCTYPE svg PUBLIC "-//W3C//DTD SVG 1.1//EN" "http://www.w3.org/Graphics/SVG/1.1/DTD/svg11.dtd">
<!-- Creator: CorelDRAW 2020 (64-Bit) -->
<svg xmlns="http://www.w3.org/2000/svg" xml:space="preserve" width="2716px" height="2841px" version="1.1" style="shape-rendering:geometricPrecision; text-rendering:geometricPrecision; image-rendering:optimizeQuality; fill-rule:evenodd; clip-rule:evenodd"
viewBox="0 0 72701 76057"
 xmlns:xlink="http://www.w3.org/1999/xlink"
 xmlns:xodm="http://www.corel.com/coreldraw/odm/2003">
 <defs>
  <style type="text/css">
   <![CDATA[
    .fil0 {fill:#FEFEFE}
   ]]>
  </style>
 </defs>
 <g id="Слой_x0020_1">
  <metadata id="CorelCorpID_0Corel-Layer"/>
  <path class="fil0" d="M32157 69c756,-69 1535,-69 2291,-69l3805 0c779,0 1535,0 2314,69 1169,91 2292,321 3369,802 1627,756 3025,2462 4034,3929 664,986 1077,2040 1375,3186 183,756 320,1512 458,2268l481 2842c23,183 138,321 298,413 229,137 573,343 848,252l3231 -1169c734,-252 1444,-527 2177,-733 1100,-298 2223,-459 3392,-367 1742,114 3438,733 4881,1742 963,664 1719,1489 2384,2429 435,618 825,1283 1237,1948l1719 2887c413,688 825,1375 1169,2086 550,1077 917,2200 1031,3391 184,1834 -137,3690 -962,5340 -550,1077 -1284,1994 -2177,2819 -573,550 -1215,1054 -1834,1558l-2473 1788c-160,137 -229,275 -229,481 0,183 69,344 229,458l2496 1811c619,504 1238,985 1811,1535 893,825 1627,1719 2177,2819 825,1650 1146,3506 962,5317 -114,1214 -481,2337 -1031,3414 -344,711 -756,1398 -1169,2086l-1742 2910c-389,642 -779,1307 -1214,1925 -665,940 -1421,1765 -2384,2430 -1443,1008 -3139,1627 -4881,1741 -1169,92 -2292,-68 -3392,-366 -733,-207 -1443,-459 -2154,-734l-3231 -1169c-183,-68 -344,-45 -504,46 -229,138 -596,321 -642,619l-504 2842c-138,756 -275,1987 -458,2743 -298,1146 -711,2200 -1375,3185 -1009,1467 -2407,2857 -4034,3590 -1077,505 -2200,757 -3369,848 -779,46 -1535,46 -2314,46l-3805 0c-756,0 -1535,0 -2314,-46 -1169,-91 -2292,-375 -3369,-879 -1604,-734 -3002,-2092 -4010,-3559 -688,-985 -1100,-2039 -1375,-3185 -207,-756 -344,-1987 -459,-2743l-504 -2842c-23,-183 -115,-321 -275,-412 -137,-69 -252,-138 -390,-207 -160,-91 -297,-91 -481,-46l-3231 1169c-711,252 -1444,527 -2177,734 -1100,298 -2223,458 -3369,366 -1765,-114 -3461,-733 -4904,-1741 -940,-665 -1719,-1490 -2384,-2430 -435,-618 -825,-1283 -1214,-1925l-1742 -2910c-390,-688 -802,-1375 -1169,-2086 -527,-1077 -893,-2200 -1031,-3414 -183,-1811 138,-3667 963,-5317 550,-1100 1283,-1994 2177,-2819 573,-550 1214,-1054 1833,-1535l2499 -1811c160,-114 229,-252 229,-435 0,-206 -69,-344 -206,-458l-2499 -1834c-642,-504 -1260,-1008 -1856,-1558 -894,-825 -1627,-1742 -2177,-2819 -826,-1650 -1146,-3506 -963,-5340 115,-1191 504,-2314 1031,-3391 367,-711 779,-1398 1169,-2086l1742 -2910c389,-642 779,-1307 1214,-1925 665,-940 1444,-1765 2384,-2429 1444,-1009 3139,-1628 4904,-1742 1146,-92 2269,69 3369,366 733,207 1466,482 2177,734l3231 1169c184,68 344,45 504,-46l0 0c230,-138 596,-321 642,-619l504 -2842c138,-756 252,-1512 459,-2269 275,-1145 687,-2200 1375,-3185 1008,-1467 2383,-3173 4010,-3929 1077,-481 2200,-711 3392,-802l0 0zm4194 24518c7379,0 13362,5983 13362,13363 0,7379 -5983,13362 -13362,13362 -7380,0 -13363,-5983 -13363,-13362 0,-7380 5983,-13363 13363,-13363zm0 5856c4146,0 7507,3361 7507,7507 0,4145 -3361,7506 -7507,7506 -4146,0 -7507,-3361 -7507,-7506 0,-4146 3361,-7507 7507,-7507zm7814 -19066c-183,-1031 -366,-3012 -939,-3860 -436,-619 -986,-1100 -1673,-1421 -963,-435 -2407,-367 -3438,-367l-3506 0c-1054,0 -2498,-68 -3461,367 -664,321 -1237,802 -1650,1421 -595,848 -779,2829 -962,3860l-527 3117c-115,596 -184,1421 -436,1948 -160,344 -320,573 -595,825 -482,481 -1467,917 -2086,1260 -252,161 -527,321 -779,459 -458,275 -1100,664 -1604,779 -344,92 -596,115 -940,92 -573,-46 -1306,-367 -1856,-573l-3506 -1261c-963,-344 -2269,-894 -3301,-825 -733,69 -1420,321 -2016,734 -848,595 -1513,1833 -2040,2727l-1581 2658c-550,917 -1398,2177 -1513,3254 -68,757 69,1513 413,2200 458,963 1972,1834 2797,2498l2498 1994c458,390 1122,848 1466,1306 252,321 367,550 459,940 183,642 114,1765 114,2452 0,688 69,1788 -114,2429 -92,390 -207,619 -459,940 -344,481 -985,939 -1466,1306l-2498 1994c-848,665 -2339,1535 -2797,2521 -344,664 -481,1444 -413,2177 115,1077 963,2338 1513,3254l1581 2659c527,893 1192,2131 2040,2727 596,412 1306,664 2016,710 1032,92 2338,-458 3301,-802l3506 -1283c550,-184 1283,-505 1833,-550 367,-46 619,-23 963,68 641,184 1535,757 2108,1100 275,138 573,298 848,459 458,252 1146,596 1535,962 253,275 413,482 573,825 252,527 321,1352 436,1948l527 3117c183,1031 367,2949 962,3820 413,596 986,1172 1650,1493 963,435 2407,367 3461,367l3506 0c1031,0 2475,68 3438,-367 687,-321 1260,-897 1673,-1493 596,-871 756,-2789 939,-3820l550 -3117c92,-596 184,-1421 436,-1948 160,-343 298,-550 573,-825 481,-458 1466,-939 2085,-1283 275,-138 527,-298 802,-458 436,-253 1100,-642 1581,-780 344,-91 596,-91 963,-68 573,45 1283,366 1833,550l3507 1283c962,344 2268,894 3300,802 733,-46 1444,-298 2039,-710 848,-596 1513,-1834 2040,-2727l1581 -2659c550,-916 1375,-2177 1490,-3254 69,-733 -69,-1513 -413,-2200 -481,-963 -1854,-1833 -2702,-2498l-2750 -2057c-459,-367 -1123,-825 -1467,-1306 -229,-321 -344,-550 -458,-940 -184,-642 -92,-1742 -92,-2429 0,-688 -92,-1811 92,-2452 114,-390 229,-619 458,-940 344,-458 1008,-939 1467,-1306l2750 -1931c848,-664 2244,-1535 2725,-2498 321,-687 459,-1443 390,-2200 -115,-1077 -940,-2337 -1490,-3254l-1581 -2658c-527,-894 -1192,-2132 -2040,-2727 -596,-413 -1306,-665 -2039,-734 -1032,-69 -2338,481 -3300,825l-3507 1261c-550,206 -1260,527 -1833,573 -367,23 -619,0 -963,-92 -641,-160 -1489,-733 -2085,-1077 -275,-138 -573,-298 -848,-436 -458,-252 -1169,-618 -1535,-1008 -275,-252 -413,-458 -573,-802 -252,-527 -344,-1352 -436,-1925l-550 -3140 0 0z"/>
 </g>
</svg>
